<svg id="group_541" data-name="group 541" xmlns="http://www.w3.org/2000/svg" width="19.994" height="19.994" viewBox="0 0 19.994 19.994">
  <g id="group_539" data-name="group 539">
    <path id="path_55" data-name="path 55" d="M17.527,58.321V57.137a.554.554,0,0,1,.559-.559H20.01a.134.134,0,0,0,.115-.214,2.686,2.686,0,0,0-4.686.016H4.8A2.7,2.7,0,0,0,2.45,55,2.663,2.663,0,0,0,.115,56.365a.144.144,0,0,0,.115.214H2.088a.554.554,0,0,1,.559.559v1.184a.554.554,0,0,1-.559.559H.246a.134.134,0,0,0-.115.214,2.686,2.686,0,0,0,4.686-.016H15.439a2.7,2.7,0,0,0,2.351,1.381,2.663,2.663,0,0,0,2.335-1.365.144.144,0,0,0-.115-.214H18.086A.554.554,0,0,1,17.527,58.321Z" transform="translate(-0.082 -45.957)" fill="#FFFFFF"/>
    <path id="path_56" data-name="path 56" d="M20.043,6.889V.312A.312.312,0,0,0,19.731,0H17.445a3.137,3.137,0,0,1-3.157,2.992A3.16,3.16,0,0,1,11.131,0H8.879A3.137,3.137,0,0,1,5.722,2.992,3.123,3.123,0,0,1,2.581,0H.312A.3.3,0,0,0,0,.312V6.906H20.043Z" fill="#FFFFFF"/>
    <path id="path_57" data-name="path 57" d="M19.568,104.721H.659a.554.554,0,0,1-.559-.559V101.4H20.127v2.762A.565.565,0,0,1,19.568,104.721Z" transform="translate(-0.084 -84.728)" fill="#FFFFFF"/>
  </g>
</svg>
