<svg width="274" height="56" viewBox="0 0 274 56" fill="none" xmlns="http://www.w3.org/2000/svg">
<path d="M270 3.8147e-06H4C1.79086 3.8147e-06 0 1.79086 0 4V52C0 54.2091 1.79086 56 4 56H270C272.209 56 274 54.2091 274 52V4C274 1.79086 272.209 3.8147e-06 270 3.8147e-06Z" fill="#FF9463"/>
<path fill-rule="evenodd" clip-rule="evenodd" d="M241.741 55.9999H229.261L228.017 51.2439L273.702 38.7035L274 39.8437V47.1448L241.741 55.9999ZM267.762 15.9958L263.722 0.547292C263.598 0.0730722 263.309 -0.0822678 262.864 0.0399122L257.612 1.48162C258.42 5.5213 256.012 9.4469 252.131 10.5123C248.25 11.5777 244.248 9.4115 242.995 5.494L238.206 6.8086C238.996 10.8532 236.606 14.7739 232.707 15.8442C228.808 16.9145 225.056 14.6798 223.802 10.7623L218.532 12.2089C218.087 12.3311 217.918 12.6317 218.037 13.0877L222.078 28.5363L267.762 15.9958ZM265.202 30.5L264.467 27.6912C264.286 26.9981 264.563 26.1597 265.239 25.974L269.583 24.7816C269.815 24.718 269.753 24.4809 269.753 24.4809L269.691 24.2438C267.292 21.6377 263.167 21.7729 260.623 24.2306C259.839 24.9541 259.157 26.1384 258.955 27.1908L234.955 33.7787C233.325 32.2128 230.892 31.3753 228.845 31.9373C226.566 32.5629 224.806 34.2971 224.451 36.6621C224.513 36.8992 224.575 37.1363 224.807 37.0728L225.038 37.0092L228.919 35.9438C229.596 35.7581 230.414 36.0417 230.596 36.7348L231.33 39.5436C231.511 40.2367 231.235 41.0751 230.558 41.2608L226.214 42.4533C225.982 42.5168 225.813 42.8175 225.875 43.0546L225.937 43.2917C228.336 45.8978 232.461 45.7626 235.005 43.3049C235.789 42.5814 236.471 41.3971 236.673 40.3447L260.886 33.6982C262.574 35.4829 264.949 36.1016 267.228 35.476C269.507 34.8504 271.267 33.1162 271.622 30.7512C271.56 30.5141 271.498 30.277 271.266 30.3406L271.035 30.4041L266.94 31.5281C266.184 31.4816 265.388 31.2114 265.202 30.5Z" fill="#FFAA83"/>
<path d="M17.0156 24V12.625H20.5156C21.5156 12.625 22.4089 12.8516 23.1953 13.3047C23.987 13.7526 24.6042 14.3932 25.0469 15.2266C25.4896 16.0547 25.7109 16.9974 25.7109 18.0547V18.5781C25.7109 19.6354 25.4922 20.5755 25.0547 21.3984C24.6224 22.2214 24.0104 22.8594 23.2188 23.3125C22.4271 23.7656 21.5339 23.9948 20.5391 24H17.0156ZM19.3594 14.5234V22.1172H20.4922C21.4089 22.1172 22.1094 21.8177 22.5938 21.2188C23.0781 20.6198 23.3255 19.763 23.3359 18.6484V18.0469C23.3359 16.8906 23.0964 16.0156 22.6172 15.4219C22.138 14.8229 21.4375 14.5234 20.5156 14.5234H19.3594ZM32.1719 24C32.0677 23.7969 31.9922 23.5443 31.9453 23.2422C31.3984 23.8516 30.6875 24.1562 29.8125 24.1562C28.9844 24.1562 28.2969 23.9167 27.75 23.4375C27.2083 22.9583 26.9375 22.3542 26.9375 21.625C26.9375 20.7292 27.2682 20.0417 27.9297 19.5625C28.5964 19.0833 29.5573 18.8411 30.8125 18.8359H31.8516V18.3516C31.8516 17.9609 31.75 17.6484 31.5469 17.4141C31.349 17.1797 31.0339 17.0625 30.6016 17.0625C30.2214 17.0625 29.9219 17.1536 29.7031 17.3359C29.4896 17.5182 29.3828 17.7682 29.3828 18.0859H27.125C27.125 17.5964 27.276 17.1432 27.5781 16.7266C27.8802 16.3099 28.3073 15.9844 28.8594 15.75C29.4115 15.5104 30.0312 15.3906 30.7188 15.3906C31.7604 15.3906 32.5859 15.6536 33.1953 16.1797C33.8099 16.7005 34.1172 17.4349 34.1172 18.3828V22.0469C34.1224 22.849 34.2344 23.4557 34.4531 23.8672V24H32.1719ZM30.3047 22.4297C30.638 22.4297 30.9453 22.3568 31.2266 22.2109C31.5078 22.0599 31.7161 21.8594 31.8516 21.6094V20.1562H31.0078C29.8776 20.1562 29.276 20.5469 29.2031 21.3281L29.1953 21.4609C29.1953 21.7422 29.2943 21.974 29.4922 22.1562C29.6901 22.3385 29.9609 22.4297 30.3047 22.4297ZM36.4688 24V17.2031H35.2109V15.5469H36.4688V14.8281C36.4688 13.8802 36.7396 13.1458 37.2812 12.625C37.8281 12.099 38.5911 11.8359 39.5703 11.8359C39.8828 11.8359 40.2656 11.888 40.7188 11.9922L40.6953 13.7422C40.5078 13.6953 40.2786 13.6719 40.0078 13.6719C39.1589 13.6719 38.7344 14.0703 38.7344 14.8672V15.5469H40.4141V17.2031H38.7344V24H36.4688ZM44.2891 13.4688V15.5469H45.7344V17.2031H44.2891V21.4219C44.2891 21.7344 44.349 21.9583 44.4688 22.0938C44.5885 22.2292 44.8177 22.2969 45.1562 22.2969C45.4062 22.2969 45.6276 22.2786 45.8203 22.2422V23.9531C45.3776 24.0885 44.9219 24.1562 44.4531 24.1562C42.8698 24.1562 42.0625 23.3568 42.0312 21.7578V17.2031H40.7969V15.5469H42.0312V13.4688H44.2891ZM51.8906 24C51.7865 23.7969 51.7109 23.5443 51.6641 23.2422C51.1172 23.8516 50.4062 24.1562 49.5312 24.1562C48.7031 24.1562 48.0156 23.9167 47.4688 23.4375C46.9271 22.9583 46.6562 22.3542 46.6562 21.625C46.6562 20.7292 46.987 20.0417 47.6484 19.5625C48.3151 19.0833 49.276 18.8411 50.5312 18.8359H51.5703V18.3516C51.5703 17.9609 51.4688 17.6484 51.2656 17.4141C51.0677 17.1797 50.7526 17.0625 50.3203 17.0625C49.9401 17.0625 49.6406 17.1536 49.4219 17.3359C49.2083 17.5182 49.1016 17.7682 49.1016 18.0859H46.8438C46.8438 17.5964 46.9948 17.1432 47.2969 16.7266C47.599 16.3099 48.026 15.9844 48.5781 15.75C49.1302 15.5104 49.75 15.3906 50.4375 15.3906C51.4792 15.3906 52.3047 15.6536 52.9141 16.1797C53.5286 16.7005 53.8359 17.4349 53.8359 18.3828V22.0469C53.8411 22.849 53.9531 23.4557 54.1719 23.8672V24H51.8906ZM50.0234 22.4297C50.3568 22.4297 50.6641 22.3568 50.9453 22.2109C51.2266 22.0599 51.4349 21.8594 51.5703 21.6094V20.1562H50.7266C49.5964 20.1562 48.9948 20.5469 48.9219 21.3281L48.9141 21.4609C48.9141 21.7422 49.013 21.974 49.2109 22.1562C49.4089 22.3385 49.6797 22.4297 50.0234 22.4297ZM60.3203 17.6641C60.013 17.6224 59.7422 17.6016 59.5078 17.6016C58.6536 17.6016 58.0938 17.8906 57.8281 18.4688V24H55.5703V15.5469H57.7031L57.7656 16.5547C58.2188 15.7786 58.8464 15.3906 59.6484 15.3906C59.8984 15.3906 60.1328 15.4245 60.3516 15.4922L60.3203 17.6641ZM65.0703 19.7109C65.0703 18.4141 65.3776 17.3698 65.9922 16.5781C66.612 15.7865 67.4453 15.3906 68.4922 15.3906C69.4193 15.3906 70.1406 15.7083 70.6562 16.3438L70.75 15.5469H72.7969V23.7188C72.7969 24.4583 72.6276 25.1016 72.2891 25.6484C71.9557 26.1953 71.4844 26.612 70.875 26.8984C70.2656 27.1849 69.5521 27.3281 68.7344 27.3281C68.1146 27.3281 67.5104 27.2031 66.9219 26.9531C66.3333 26.7083 65.888 26.3906 65.5859 26L66.5859 24.625C67.1484 25.2552 67.8307 25.5703 68.6328 25.5703C69.2318 25.5703 69.6979 25.4089 70.0312 25.0859C70.3646 24.7682 70.5312 24.3151 70.5312 23.7266V23.2734C70.0104 23.862 69.3255 24.1562 68.4766 24.1562C67.4609 24.1562 66.638 23.7604 66.0078 22.9688C65.3828 22.1719 65.0703 21.1172 65.0703 19.8047V19.7109ZM67.3281 19.875C67.3281 20.6406 67.4818 21.2422 67.7891 21.6797C68.0964 22.112 68.5182 22.3281 69.0547 22.3281C69.7422 22.3281 70.2344 22.0703 70.5312 21.5547V18C70.2292 17.4844 69.7422 17.2266 69.0703 17.2266C68.5286 17.2266 68.1016 17.4479 67.7891 17.8906C67.4818 18.3333 67.3281 18.9948 67.3281 19.875ZM79.2891 17.6641C78.9818 17.6224 78.7109 17.6016 78.4766 17.6016C77.6224 17.6016 77.0625 17.8906 76.7969 18.4688V24H74.5391V15.5469H76.6719L76.7344 16.5547C77.1875 15.7786 77.8151 15.3906 78.6172 15.3906C78.8672 15.3906 79.1016 15.4245 79.3203 15.4922L79.2891 17.6641ZM85.0469 24C84.9427 23.7969 84.8672 23.5443 84.8203 23.2422C84.2734 23.8516 83.5625 24.1562 82.6875 24.1562C81.8594 24.1562 81.1719 23.9167 80.625 23.4375C80.0833 22.9583 79.8125 22.3542 79.8125 21.625C79.8125 20.7292 80.1432 20.0417 80.8047 19.5625C81.4714 19.0833 82.4323 18.8411 83.6875 18.8359H84.7266V18.3516C84.7266 17.9609 84.625 17.6484 84.4219 17.4141C84.224 17.1797 83.9089 17.0625 83.4766 17.0625C83.0964 17.0625 82.7969 17.1536 82.5781 17.3359C82.3646 17.5182 82.2578 17.7682 82.2578 18.0859H80C80 17.5964 80.151 17.1432 80.4531 16.7266C80.7552 16.3099 81.1823 15.9844 81.7344 15.75C82.2865 15.5104 82.9062 15.3906 83.5938 15.3906C84.6354 15.3906 85.4609 15.6536 86.0703 16.1797C86.6849 16.7005 86.9922 17.4349 86.9922 18.3828V22.0469C86.9974 22.849 87.1094 23.4557 87.3281 23.8672V24H85.0469ZM83.1797 22.4297C83.513 22.4297 83.8203 22.3568 84.1016 22.2109C84.3828 22.0599 84.5911 21.8594 84.7266 21.6094V20.1562H83.8828C82.7526 20.1562 82.151 20.5469 82.0781 21.3281L82.0703 21.4609C82.0703 21.7422 82.1693 21.974 82.3672 22.1562C82.5651 22.3385 82.8359 22.4297 83.1797 22.4297ZM91.4297 13.4688V15.5469H92.875V17.2031H91.4297V21.4219C91.4297 21.7344 91.4896 21.9583 91.6094 22.0938C91.7292 22.2292 91.9583 22.2969 92.297 22.2969C92.547 22.2969 92.768 22.2786 92.961 22.2422V23.9531C92.518 24.0885 92.062 24.1562 91.5938 24.1562C90.0104 24.1562 89.2031 23.3568 89.1719 21.7578V17.2031H87.9375V15.5469H89.1719V13.4688H91.4297ZM96.516 24H94.25V15.5469H96.516V24ZM94.117 13.3594C94.117 13.0208 94.229 12.7422 94.453 12.5234C94.682 12.3047 94.992 12.1953 95.383 12.1953C95.768 12.1953 96.076 12.3047 96.305 12.5234C96.534 12.7422 96.648 13.0208 96.648 13.3594C96.648 13.7031 96.531 13.9844 96.297 14.2031C96.068 14.4219 95.763 14.5312 95.383 14.5312C95.003 14.5312 94.695 14.4219 94.461 14.2031C94.232 13.9844 94.117 13.7031 94.117 13.3594ZM102.961 21.6641C102.961 21.388 102.823 21.1719 102.547 21.0156C102.276 20.8542 101.839 20.7109 101.234 20.5859C99.224 20.1641 98.219 19.3099 98.219 18.0234C98.219 17.2734 98.529 16.6484 99.148 16.1484C99.773 15.6432 100.589 15.3906 101.594 15.3906C102.667 15.3906 103.523 15.6432 104.164 16.1484C104.81 16.6536 105.133 17.3099 105.133 18.1172H102.875C102.875 17.7943 102.771 17.5286 102.562 17.3203C102.354 17.1068 102.029 17 101.586 17C101.206 17 100.911 17.0859 100.703 17.2578C100.495 17.4297 100.391 17.6484 100.391 17.9141C100.391 18.1641 100.508 18.3672 100.742 18.5234C100.982 18.6745 101.383 18.8073 101.945 18.9219C102.508 19.0312 102.982 19.1562 103.367 19.2969C104.56 19.7344 105.156 20.4922 105.156 21.5703C105.156 22.3411 104.826 22.9661 104.164 23.4453C103.503 23.9193 102.648 24.1562 101.602 24.1562C100.893 24.1562 100.263 24.0312 99.711 23.7812C99.164 23.526 98.734 23.1797 98.422 22.7422C98.109 22.2995 97.953 21.8229 97.953 21.3125H100.094C100.115 21.7135 100.263 22.0208 100.539 22.2344C100.815 22.4479 101.185 22.5547 101.648 22.5547C102.081 22.5547 102.406 22.474 102.625 22.3125C102.849 22.1458 102.961 21.9297 102.961 21.6641ZM120.094 18.5703C120.094 19.6901 119.896 20.6719 119.5 21.5156C119.104 22.3594 118.536 23.0104 117.797 23.4688C117.062 23.9271 116.219 24.1562 115.266 24.1562C114.323 24.1562 113.482 23.9297 112.742 23.4766C112.003 23.0234 111.43 22.3776 111.023 21.5391C110.617 20.6953 110.411 19.7266 110.406 18.6328V18.0703C110.406 16.9505 110.607 15.9661 111.008 15.1172C111.414 14.263 111.984 13.6094 112.719 13.1562C113.458 12.6979 114.302 12.4688 115.25 12.4688C116.198 12.4688 117.039 12.6979 117.773 13.1562C118.513 13.6094 119.083 14.263 119.484 15.1172C119.891 15.9661 120.094 16.9479 120.094 18.0625V18.5703ZM117.719 18.0547C117.719 16.862 117.505 15.9557 117.078 15.3359C116.651 14.7161 116.042 14.4062 115.25 14.4062C114.464 14.4062 113.857 14.7135 113.43 15.3281C113.003 15.9375 112.786 16.8333 112.781 18.0156V18.5703C112.781 19.7318 112.995 20.6328 113.422 21.2734C113.849 21.9141 114.464 22.2344 115.266 22.2344C116.052 22.2344 116.656 21.9271 117.078 21.3125C117.5 20.6927 117.714 19.7917 117.719 18.6094V18.0547ZM124.352 13.4688V15.5469H125.797V17.2031H124.352V21.4219C124.352 21.7344 124.411 21.9583 124.531 22.0938C124.651 22.2292 124.88 22.2969 125.219 22.2969C125.469 22.2969 125.69 22.2786 125.883 22.2422V23.9531C125.44 24.0885 124.984 24.1562 124.516 24.1562C122.932 24.1562 122.125 23.3568 122.094 21.7578V17.2031H120.859V15.5469H122.094V13.4688H124.352ZM126.469 19.6953C126.469 18.8568 126.63 18.1094 126.953 17.4531C127.276 16.7969 127.74 16.2891 128.344 15.9297C128.953 15.5703 129.659 15.3906 130.461 15.3906C131.602 15.3906 132.531 15.7396 133.25 16.4375C133.974 17.1354 134.378 18.0833 134.461 19.2812L134.477 19.8594C134.477 21.1562 134.115 22.1979 133.391 22.9844C132.667 23.7656 131.695 24.1562 130.477 24.1562C129.258 24.1562 128.284 23.7656 127.555 22.9844C126.831 22.2031 126.469 21.1406 126.469 19.7969V19.6953ZM128.727 19.8594C128.727 20.6615 128.878 21.276 129.18 21.7031C129.482 22.125 129.914 22.3359 130.477 22.3359C131.023 22.3359 131.451 22.1276 131.758 21.7109C132.065 21.2891 132.219 20.6172 132.219 19.6953C132.219 18.9089 132.065 18.2995 131.758 17.8672C131.451 17.4349 131.018 17.2188 130.461 17.2188C129.909 17.2188 129.482 17.4349 129.18 17.8672C128.878 18.2943 128.727 18.9583 128.727 19.8594ZM140.617 17.6641C140.31 17.6224 140.039 17.6016 139.805 17.6016C138.951 17.6016 138.391 17.8906 138.125 18.4688V24H135.867V15.5469H138L138.062 16.5547C138.516 15.7786 139.143 15.3906 139.945 15.3906C140.195 15.3906 140.43 15.4245 140.648 15.4922L140.617 17.6641ZM146.375 24C146.271 23.7969 146.195 23.5443 146.148 23.2422C145.602 23.8516 144.891 24.1562 144.016 24.1562C143.188 24.1562 142.5 23.9167 141.953 23.4375C141.411 22.9583 141.141 22.3542 141.141 21.625C141.141 20.7292 141.471 20.0417 142.133 19.5625C142.799 19.0833 143.76 18.8411 145.016 18.8359H146.055V18.3516C146.055 17.9609 145.953 17.6484 145.75 17.4141C145.552 17.1797 145.237 17.0625 144.805 17.0625C144.424 17.0625 144.125 17.1536 143.906 17.3359C143.693 17.5182 143.586 17.7682 143.586 18.0859H141.328C141.328 17.5964 141.479 17.1432 141.781 16.7266C142.083 16.3099 142.51 15.9844 143.062 15.75C143.615 15.5104 144.234 15.3906 144.922 15.3906C145.964 15.3906 146.789 15.6536 147.398 16.1797C148.013 16.7005 148.32 17.4349 148.32 18.3828V22.0469C148.326 22.849 148.438 23.4557 148.656 23.8672V24H146.375ZM144.508 22.4297C144.841 22.4297 145.148 22.3568 145.43 22.2109C145.711 22.0599 145.919 21.8594 146.055 21.6094V20.1562H145.211C144.081 20.1562 143.479 20.5469 143.406 21.3281L143.398 21.4609C143.398 21.7422 143.497 21.974 143.695 22.1562C143.893 22.3385 144.164 22.4297 144.508 22.4297ZM152.445 15.5469V24.4609C152.445 25.3932 152.198 26.1172 151.703 26.6328C151.208 27.1536 150.495 27.4141 149.562 27.4141C149.172 27.4141 148.799 27.3698 148.445 27.2812V25.4922C148.716 25.5391 148.953 25.5625 149.156 25.5625C149.839 25.5625 150.18 25.2005 150.18 24.4766V15.5469H152.445ZM150 13.3594C150 13.0208 150.112 12.7422 150.336 12.5234C150.565 12.3047 150.875 12.1953 151.266 12.1953C151.656 12.1953 151.964 12.3047 152.188 12.5234C152.417 12.7422 152.531 13.0208 152.531 13.3594C152.531 13.7031 152.414 13.9844 152.18 14.2031C151.951 14.4219 151.646 14.5312 151.266 14.5312C150.885 14.5312 150.578 14.4219 150.344 14.2031C150.115 13.9844 150 13.7031 150 13.3594ZM159.109 24C159.005 23.7969 158.93 23.5443 158.883 23.2422C158.336 23.8516 157.625 24.1562 156.75 24.1562C155.922 24.1562 155.234 23.9167 154.688 23.4375C154.146 22.9583 153.875 22.3542 153.875 21.625C153.875 20.7292 154.206 20.0417 154.867 19.5625C155.534 19.0833 156.495 18.8411 157.75 18.8359H158.789V18.3516C158.789 17.9609 158.688 17.6484 158.484 17.4141C158.286 17.1797 157.971 17.0625 157.539 17.0625C157.159 17.0625 156.859 17.1536 156.641 17.3359C156.427 17.5182 156.32 17.7682 156.32 18.0859H154.062C154.062 17.5964 154.214 17.1432 154.516 16.7266C154.818 16.3099 155.245 15.9844 155.797 15.75C156.349 15.5104 156.969 15.3906 157.656 15.3906C158.698 15.3906 159.523 15.6536 160.133 16.1797C160.747 16.7005 161.055 17.4349 161.055 18.3828V22.0469C161.06 22.849 161.172 23.4557 161.391 23.8672V24H159.109ZM157.242 22.4297C157.576 22.4297 157.883 22.3568 158.164 22.2109C158.445 22.0599 158.654 21.8594 158.789 21.6094V20.1562H157.945C156.815 20.1562 156.214 20.5469 156.141 21.3281L156.133 21.4609C156.133 21.7422 156.232 21.974 156.43 22.1562C156.628 22.3385 156.898 22.4297 157.242 22.4297ZM166.922 24V12.625H170.906C172.286 12.625 173.333 12.8906 174.047 13.4219C174.76 13.9479 175.117 14.7214 175.117 15.7422C175.117 16.2995 174.974 16.7917 174.688 17.2188C174.401 17.6406 174.003 17.9505 173.492 18.1484C174.076 18.2943 174.534 18.5885 174.867 19.0312C175.206 19.474 175.375 20.0156 175.375 20.6562C175.375 21.75 175.026 22.5781 174.328 23.1406C173.63 23.7031 172.635 23.9896 171.344 24H166.922ZM169.266 19.0469V22.1172H171.273C171.826 22.1172 172.255 21.987 172.562 21.7266C172.875 21.4609 173.031 21.0964 173.031 20.6328C173.031 19.5911 172.492 19.0625 171.414 19.0469H169.266ZM169.266 17.3906H171C172.182 17.3698 172.773 16.8984 172.773 15.9766C172.773 15.4609 172.622 15.0911 172.32 14.8672C172.023 14.638 171.552 14.5234 170.906 14.5234H169.266V17.3906ZM179.375 24H177.109V15.5469H179.375V24ZM176.977 13.3594C176.977 13.0208 177.089 12.7422 177.312 12.5234C177.542 12.3047 177.852 12.1953 178.242 12.1953C178.628 12.1953 178.935 12.3047 179.164 12.5234C179.393 12.7422 179.508 13.0208 179.508 13.3594C179.508 13.7031 179.391 13.9844 179.156 14.2031C178.927 14.4219 178.622 14.5312 178.242 14.5312C177.862 14.5312 177.555 14.4219 177.32 14.2031C177.091 13.9844 176.977 13.7031 176.977 13.3594ZM183.836 22.1797H187.969V24H180.953V22.625L184.93 17.375H181.07V15.5469H187.844V16.8828L183.836 22.1797Z" fill="white"/>
<path d="M22.8848 35.3945H20.1426V43H19.0234V35.3945H16.2871V34.4688H22.8848V35.3945ZM27.2266 43C27.1641 42.875 27.1133 42.6523 27.0742 42.332C26.5703 42.8555 25.9688 43.1172 25.2695 43.1172C24.6445 43.1172 24.1309 42.9414 23.7285 42.5898C23.3301 42.2344 23.1309 41.7852 23.1309 41.2422C23.1309 40.582 23.3809 40.0703 23.8809 39.707C24.3848 39.3398 25.0918 39.1562 26.002 39.1562H27.0566V38.6582C27.0566 38.2793 26.9434 37.9785 26.7168 37.7559C26.4902 37.5293 26.1562 37.416 25.7148 37.416C25.3281 37.416 25.0039 37.5137 24.7422 37.709C24.4805 37.9043 24.3496 38.1406 24.3496 38.418H23.2598C23.2598 38.1016 23.3711 37.7969 23.5938 37.5039C23.8203 37.207 24.125 36.9727 24.5078 36.8008C24.8945 36.6289 25.3184 36.543 25.7793 36.543C26.5098 36.543 27.082 36.7266 27.4961 37.0938C27.9102 37.457 28.125 37.959 28.1406 38.5996V41.5176C28.1406 42.0996 28.2148 42.5625 28.3633 42.9062V43H27.2266ZM25.4277 42.1738C25.7676 42.1738 26.0898 42.0859 26.3945 41.9102C26.6992 41.7344 26.9199 41.5059 27.0566 41.2246V39.9238H26.207C24.8789 39.9238 24.2148 40.3125 24.2148 41.0898C24.2148 41.4297 24.3281 41.6953 24.5547 41.8867C24.7812 42.0781 25.0723 42.1738 25.4277 42.1738ZM35.1953 39.9004C35.1953 40.8652 34.9746 41.6426 34.5332 42.2324C34.0918 42.8223 33.4941 43.1172 32.7402 43.1172C31.9707 43.1172 31.3652 42.873 30.9238 42.3848V45.4375H29.8398V36.6602H30.8301L30.8828 37.3633C31.3242 36.8164 31.9375 36.543 32.7227 36.543C33.4844 36.543 34.0859 36.8301 34.5273 37.4043C34.9727 37.9785 35.1953 38.7773 35.1953 39.8008V39.9004ZM34.1113 39.7773C34.1113 39.0625 33.959 38.498 33.6543 38.084C33.3496 37.6699 32.9316 37.4629 32.4004 37.4629C31.7441 37.4629 31.252 37.7539 30.9238 38.3359V41.3652C31.248 41.9434 31.7441 42.2324 32.4121 42.2324C32.9316 42.2324 33.3438 42.0273 33.6484 41.6172C33.957 41.2031 34.1113 40.5898 34.1113 39.7773ZM39.291 39.7773C39.291 38.8047 39.5215 38.0234 39.9824 37.4336C40.4434 36.8398 41.0469 36.543 41.793 36.543C42.5352 36.543 43.123 36.7969 43.5566 37.3047V34H44.6406V43H43.6445L43.5918 42.3203C43.1582 42.8516 42.5547 43.1172 41.7812 43.1172C41.0469 43.1172 40.4473 42.8164 39.9824 42.2148C39.5215 41.6133 39.291 40.8281 39.291 39.8594V39.7773ZM40.375 39.9004C40.375 40.6191 40.5234 41.1816 40.8203 41.5879C41.1172 41.9941 41.5273 42.1973 42.0508 42.1973C42.7383 42.1973 43.2402 41.8887 43.5566 41.2715V38.3594C43.2324 37.7617 42.7344 37.4629 42.0625 37.4629C41.5312 37.4629 41.1172 37.668 40.8203 38.0781C40.5234 38.4883 40.375 39.0957 40.375 39.9004ZM47.5059 43H46.4219V36.6602H47.5059V43ZM46.334 34.9785C46.334 34.8027 46.3867 34.6543 46.4922 34.5332C46.6016 34.4121 46.7617 34.3516 46.9727 34.3516C47.1836 34.3516 47.3438 34.4121 47.4531 34.5332C47.5625 34.6543 47.6172 34.8027 47.6172 34.9785C47.6172 35.1543 47.5625 35.3008 47.4531 35.418C47.3438 35.5352 47.1836 35.5938 46.9727 35.5938C46.7617 35.5938 46.6016 35.5352 46.4922 35.418C46.3867 35.3008 46.334 35.1543 46.334 34.9785ZM55.9141 41.3184C55.9141 41.0254 55.8027 40.7988 55.5801 40.6387C55.3613 40.4746 54.9766 40.334 54.4258 40.2168C53.8789 40.0996 53.4434 39.959 53.1191 39.7949C52.7988 39.6309 52.5605 39.4355 52.4043 39.209C52.252 38.9824 52.1758 38.7129 52.1758 38.4004C52.1758 37.8809 52.3945 37.4414 52.832 37.082C53.2734 36.7227 53.8359 36.543 54.5195 36.543C55.2383 36.543 55.8203 36.7285 56.2656 37.0996C56.7148 37.4707 56.9395 37.9453 56.9395 38.5234H55.8496C55.8496 38.2266 55.7227 37.9707 55.4688 37.7559C55.2188 37.541 54.9023 37.4336 54.5195 37.4336C54.125 37.4336 53.8164 37.5195 53.5938 37.6914C53.3711 37.8633 53.2598 38.0879 53.2598 38.3652C53.2598 38.627 53.3633 38.8242 53.5703 38.957C53.7773 39.0898 54.1504 39.2168 54.6895 39.3379C55.2324 39.459 55.6719 39.6035 56.0078 39.7715C56.3438 39.9395 56.5918 40.1426 56.752 40.3809C56.916 40.6152 56.998 40.9023 56.998 41.2422C56.998 41.8086 56.7715 42.2637 56.3184 42.6074C55.8652 42.9473 55.2773 43.1172 54.5547 43.1172C54.0469 43.1172 53.5977 43.0273 53.207 42.8477C52.8164 42.668 52.5098 42.418 52.2871 42.0977C52.0684 41.7734 51.959 41.4238 51.959 41.0488H53.043C53.0625 41.4121 53.207 41.7012 53.4766 41.916C53.75 42.127 54.1094 42.2324 54.5547 42.2324C54.9648 42.2324 55.293 42.1504 55.5391 41.9863C55.7891 41.8184 55.9141 41.5957 55.9141 41.3184ZM59.5879 43H58.5039V36.6602H59.5879V43ZM58.416 34.9785C58.416 34.8027 58.4688 34.6543 58.5742 34.5332C58.6836 34.4121 58.8438 34.3516 59.0547 34.3516C59.2656 34.3516 59.4258 34.4121 59.5352 34.5332C59.6445 34.6543 59.6992 34.8027 59.6992 34.9785C59.6992 35.1543 59.6445 35.3008 59.5352 35.418C59.4258 35.5352 59.2656 35.5938 59.0547 35.5938C58.8438 35.5938 58.6836 35.5352 58.5742 35.418C58.4688 35.3008 58.416 35.1543 58.416 34.9785ZM62.3535 36.6602L62.3887 37.457C62.873 36.8477 63.5059 36.543 64.2871 36.543C65.627 36.543 66.3027 37.2988 66.3145 38.8105V43H65.2305V38.8047C65.2266 38.3477 65.1211 38.0098 64.9141 37.791C64.7109 37.5723 64.3926 37.4629 63.959 37.4629C63.6074 37.4629 63.2988 37.5566 63.0332 37.7441C62.7676 37.9316 62.5605 38.1777 62.4121 38.4824V43H61.3281V36.6602H62.3535ZM69.127 43H68.043V36.6602H69.127V43ZM67.9551 34.9785C67.9551 34.8027 68.0078 34.6543 68.1133 34.5332C68.2227 34.4121 68.3828 34.3516 68.5938 34.3516C68.8047 34.3516 68.9648 34.4121 69.0742 34.5332C69.1836 34.6543 69.2383 34.8027 69.2383 34.9785C69.2383 35.1543 69.1836 35.3008 69.0742 35.418C68.9648 35.5352 68.8047 35.5938 68.5938 35.5938C68.3828 35.5938 68.2227 35.5352 68.1133 35.418C68.0078 35.3008 67.9551 35.1543 67.9551 34.9785Z" fill="white"/>
<path d="M16 44.1719H70.041V44.7578H16V44.1719Z" fill="white"/>
</svg>
    