<svg width="408" height="56" viewBox="0 0 408 56" fill="none" xmlns="http://www.w3.org/2000/svg">
<g clip-path="url(#clip0_1386:2418)">
<rect width="408" height="56" rx="4" fill="#FF9463"/>
<path fill-rule="evenodd" clip-rule="evenodd" d="M375.741 55.9999H363.261L362.017 51.2439L407.702 38.7035L408 39.8437V47.1448L375.741 55.9999ZM401.762 15.9958L397.722 0.547287C397.598 0.0730696 397.309 -0.0822669 396.864 0.0399123L391.612 1.48162C392.42 5.52128 390.012 9.4469 386.131 10.5123C382.25 11.5777 378.248 9.41146 376.995 5.49398L372.206 6.80862C372.996 10.8532 370.606 14.7739 366.707 15.8442C362.808 16.9145 359.056 14.6798 357.802 10.7623L352.532 12.2089C352.087 12.3311 351.918 12.6317 352.037 13.0877L356.078 28.5363L401.762 15.9958ZM399.202 30.5L398.467 27.6912C398.286 26.9981 398.563 26.1597 399.239 25.974L403.583 24.7816C403.815 24.718 403.753 24.4809 403.753 24.4809L403.691 24.2438C401.292 21.6377 397.167 21.7729 394.623 24.2306C393.839 24.9541 393.157 26.1384 392.955 27.1908L368.955 33.7787C367.325 32.2128 364.892 31.3753 362.845 31.9373C360.566 32.5629 358.806 34.2971 358.451 36.6621C358.513 36.8992 358.575 37.1363 358.807 37.0728L359.038 37.0092L362.919 35.9438C363.596 35.7581 364.414 36.0417 364.596 36.7348L365.33 39.5436C365.511 40.2367 365.235 41.0751 364.558 41.2608L360.214 42.4533C359.982 42.5168 359.813 42.8175 359.875 43.0546L359.937 43.2917C362.336 45.8978 366.461 45.7626 369.005 43.3049C369.789 42.5814 370.471 41.3971 370.673 40.3447L394.886 33.6982C396.574 35.4829 398.949 36.1016 401.228 35.476C403.507 34.8504 405.267 33.1162 405.622 30.7513C405.56 30.5141 405.498 30.277 405.266 30.3406L405.035 30.4041L400.94 31.5282C400.184 31.4816 399.388 31.2114 399.202 30.5Z" fill="#FFAA83"/>
<path d="M17.1426 35V22.2031H21.0801C22.2051 22.2031 23.21 22.458 24.0947 22.9678C24.9854 23.4717 25.6797 24.1924 26.1777 25.1299C26.6758 26.0615 26.9248 27.1221 26.9248 28.3115V28.9004C26.9248 30.0898 26.6787 31.1475 26.1865 32.0732C25.7002 32.999 25.0117 33.7168 24.1211 34.2266C23.2305 34.7363 22.2256 34.9941 21.1064 35H17.1426ZM19.7793 24.3389V32.8818H21.0537C22.085 32.8818 22.873 32.5449 23.418 31.8711C23.9629 31.1973 24.2412 30.2334 24.2529 28.9795V28.3027C24.2529 27.002 23.9834 26.0176 23.4443 25.3496C22.9053 24.6758 22.1172 24.3389 21.0801 24.3389H19.7793ZM34.1934 35C34.0762 34.7715 33.9912 34.4873 33.9385 34.1475C33.3232 34.833 32.5234 35.1758 31.5391 35.1758C30.6074 35.1758 29.834 34.9062 29.2188 34.3672C28.6094 33.8281 28.3047 33.1484 28.3047 32.3281C28.3047 31.3203 28.6768 30.5469 29.4209 30.0078C30.1709 29.4688 31.252 29.1963 32.6641 29.1904H33.833V28.6455C33.833 28.2061 33.7188 27.8545 33.4902 27.5908C33.2676 27.3271 32.9131 27.1953 32.4268 27.1953C31.999 27.1953 31.6621 27.2979 31.416 27.5029C31.1758 27.708 31.0557 27.9893 31.0557 28.3467H28.5156C28.5156 27.7959 28.6855 27.2861 29.0254 26.8174C29.3652 26.3486 29.8457 25.9824 30.4668 25.7188C31.0879 25.4492 31.7852 25.3145 32.5586 25.3145C33.7305 25.3145 34.6592 25.6104 35.3447 26.2021C36.0361 26.7881 36.3818 27.6143 36.3818 28.6807V32.8027C36.3877 33.7051 36.5137 34.3877 36.7598 34.8506V35H34.1934ZM32.0928 33.2334C32.4678 33.2334 32.8135 33.1514 33.1299 32.9873C33.4463 32.8174 33.6807 32.5918 33.833 32.3105V30.6758H32.8838C31.6123 30.6758 30.9355 31.1152 30.8535 31.9941L30.8447 32.1436C30.8447 32.46 30.9561 32.7207 31.1787 32.9258C31.4014 33.1309 31.7061 33.2334 32.0928 33.2334ZM39.0273 35V27.3535H37.6123V25.4902H39.0273V24.6816C39.0273 23.6152 39.332 22.7891 39.9414 22.2031C40.5566 21.6113 41.415 21.3154 42.5166 21.3154C42.8682 21.3154 43.2988 21.374 43.8086 21.4912L43.7822 23.46C43.5713 23.4072 43.3135 23.3809 43.0088 23.3809C42.0537 23.3809 41.5762 23.8291 41.5762 24.7256V25.4902H43.4658V27.3535H41.5762V35H39.0273ZM47.8252 23.1523V25.4902H49.4512V27.3535H47.8252V32.0996C47.8252 32.4512 47.8926 32.7031 48.0273 32.8555C48.1621 33.0078 48.4199 33.084 48.8008 33.084C49.082 33.084 49.3311 33.0635 49.5479 33.0225V34.9473C49.0498 35.0996 48.5371 35.1758 48.0098 35.1758C46.2285 35.1758 45.3203 34.2764 45.2852 32.4775V27.3535H43.8965V25.4902H45.2852V23.1523H47.8252ZM56.377 35C56.2598 34.7715 56.1748 34.4873 56.1221 34.1475C55.5068 34.833 54.707 35.1758 53.7227 35.1758C52.791 35.1758 52.0176 34.9062 51.4023 34.3672C50.793 33.8281 50.4883 33.1484 50.4883 32.3281C50.4883 31.3203 50.8604 30.5469 51.6045 30.0078C52.3545 29.4688 53.4355 29.1963 54.8477 29.1904H56.0166V28.6455C56.0166 28.2061 55.9023 27.8545 55.6738 27.5908C55.4512 27.3271 55.0967 27.1953 54.6104 27.1953C54.1826 27.1953 53.8457 27.2979 53.5996 27.5029C53.3594 27.708 53.2393 27.9893 53.2393 28.3467H50.6992C50.6992 27.7959 50.8691 27.2861 51.209 26.8174C51.5488 26.3486 52.0293 25.9824 52.6504 25.7188C53.2715 25.4492 53.9688 25.3145 54.7422 25.3145C55.9141 25.3145 56.8428 25.6104 57.5283 26.2021C58.2197 26.7881 58.5654 27.6143 58.5654 28.6807V32.8027C58.5713 33.7051 58.6973 34.3877 58.9434 34.8506V35H56.377ZM54.2764 33.2334C54.6514 33.2334 54.9971 33.1514 55.3135 32.9873C55.6299 32.8174 55.8643 32.5918 56.0166 32.3105V30.6758H55.0674C53.7959 30.6758 53.1191 31.1152 53.0371 31.9941L53.0283 32.1436C53.0283 32.46 53.1396 32.7207 53.3623 32.9258C53.585 33.1309 53.8896 33.2334 54.2764 33.2334ZM65.8604 27.8721C65.5146 27.8252 65.21 27.8018 64.9463 27.8018C63.9854 27.8018 63.3555 28.127 63.0566 28.7773V35H60.5166V25.4902H62.916L62.9863 26.624C63.4961 25.751 64.2021 25.3145 65.1045 25.3145C65.3857 25.3145 65.6494 25.3525 65.8955 25.4287L65.8604 27.8721ZM71.2041 30.1748C71.2041 28.7158 71.5498 27.541 72.2412 26.6504C72.9385 25.7598 73.876 25.3145 75.0537 25.3145C76.0967 25.3145 76.9082 25.6719 77.4883 26.3867L77.5938 25.4902H79.8965V34.6836C79.8965 35.5156 79.7061 36.2393 79.3252 36.8545C78.9502 37.4697 78.4199 37.9385 77.7344 38.2607C77.0488 38.583 76.2461 38.7441 75.3262 38.7441C74.6289 38.7441 73.9492 38.6035 73.2871 38.3223C72.625 38.0469 72.124 37.6895 71.7842 37.25L72.9092 35.7031C73.542 36.4121 74.3096 36.7666 75.2119 36.7666C75.8857 36.7666 76.4102 36.585 76.7852 36.2217C77.1602 35.8643 77.3477 35.3545 77.3477 34.6924V34.1826C76.7617 34.8447 75.9912 35.1758 75.0361 35.1758C73.8936 35.1758 72.9678 34.7305 72.2588 33.8398C71.5557 32.9434 71.2041 31.7568 71.2041 30.2803V30.1748ZM73.7441 30.3594C73.7441 31.2207 73.917 31.8975 74.2627 32.3896C74.6084 32.876 75.083 33.1191 75.6865 33.1191C76.46 33.1191 77.0137 32.8291 77.3477 32.249V28.25C77.0078 27.6699 76.46 27.3799 75.7041 27.3799C75.0947 27.3799 74.6143 27.6289 74.2627 28.127C73.917 28.625 73.7441 29.3691 73.7441 30.3594ZM87.2002 27.8721C86.8545 27.8252 86.5498 27.8018 86.2861 27.8018C85.3252 27.8018 84.6953 28.127 84.3965 28.7773V35H81.8564V25.4902H84.2559L84.3262 26.624C84.8359 25.751 85.542 25.3145 86.4443 25.3145C86.7256 25.3145 86.9893 25.3525 87.2354 25.4287L87.2002 27.8721ZM93.6777 35C93.5605 34.7715 93.4756 34.4873 93.4229 34.1475C92.8076 34.833 92.0078 35.1758 91.0234 35.1758C90.0918 35.1758 89.3184 34.9062 88.7031 34.3672C88.0938 33.8281 87.7891 33.1484 87.7891 32.3281C87.7891 31.3203 88.1611 30.5469 88.9053 30.0078C89.6553 29.4688 90.7363 29.1963 92.1484 29.1904H93.3174V28.6455C93.3174 28.2061 93.2031 27.8545 92.9746 27.5908C92.752 27.3271 92.3975 27.1953 91.9111 27.1953C91.4834 27.1953 91.1465 27.2979 90.9004 27.5029C90.6602 27.708 90.54 27.9893 90.54 28.3467H88C88 27.7959 88.1699 27.2861 88.5098 26.8174C88.8496 26.3486 89.3301 25.9824 89.9512 25.7188C90.5723 25.4492 91.2695 25.3145 92.043 25.3145C93.2148 25.3145 94.1436 25.6104 94.8291 26.2021C95.5205 26.7881 95.8662 27.6143 95.8662 28.6807V32.8027C95.8721 33.7051 95.998 34.3877 96.2441 34.8506V35H93.6777ZM91.5771 33.2334C91.9521 33.2334 92.2979 33.1514 92.6143 32.9873C92.9307 32.8174 93.165 32.5918 93.3174 32.3105V30.6758H92.3682C91.0967 30.6758 90.4199 31.1152 90.3379 31.9941L90.3291 32.1436C90.3291 32.46 90.4404 32.7207 90.6631 32.9258C90.8857 33.1309 91.1904 33.2334 91.5771 33.2334ZM100.858 23.1523V25.4902H102.484V27.3535H100.858V32.0996C100.858 32.4512 100.926 32.7031 101.061 32.8555C101.195 33.0078 101.453 33.084 101.834 33.084C102.115 33.084 102.364 33.0635 102.581 33.0225V34.9473C102.083 35.0996 101.57 35.1758 101.043 35.1758C99.2617 35.1758 98.3535 34.2764 98.3184 32.4775V27.3535H96.9297V25.4902H98.3184V23.1523H100.858ZM106.58 35H104.031V25.4902H106.58V35ZM103.882 23.0293C103.882 22.6484 104.008 22.335 104.26 22.0889C104.518 21.8428 104.866 21.7197 105.306 21.7197C105.739 21.7197 106.085 21.8428 106.343 22.0889C106.601 22.335 106.729 22.6484 106.729 23.0293C106.729 23.416 106.598 23.7324 106.334 23.9785C106.076 24.2246 105.733 24.3477 105.306 24.3477C104.878 24.3477 104.532 24.2246 104.269 23.9785C104.011 23.7324 103.882 23.416 103.882 23.0293ZM113.831 32.3721C113.831 32.0615 113.676 31.8184 113.365 31.6426C113.061 31.4609 112.568 31.2998 111.889 31.1592C109.627 30.6846 108.496 29.7236 108.496 28.2764C108.496 27.4326 108.845 26.7295 109.542 26.167C110.245 25.5986 111.162 25.3145 112.293 25.3145C113.5 25.3145 114.464 25.5986 115.185 26.167C115.911 26.7354 116.274 27.4736 116.274 28.3818H113.734C113.734 28.0186 113.617 27.7197 113.383 27.4854C113.148 27.2451 112.782 27.125 112.284 27.125C111.856 27.125 111.525 27.2217 111.291 27.415C111.057 27.6084 110.939 27.8545 110.939 28.1533C110.939 28.4346 111.071 28.6631 111.335 28.8389C111.604 29.0088 112.056 29.1582 112.688 29.2871C113.321 29.4102 113.854 29.5508 114.288 29.709C115.63 30.2012 116.301 31.0537 116.301 32.2666C116.301 33.1338 115.929 33.8369 115.185 34.376C114.44 34.9092 113.479 35.1758 112.302 35.1758C111.505 35.1758 110.796 35.0352 110.175 34.7539C109.56 34.4668 109.076 34.0771 108.725 33.585C108.373 33.0869 108.197 32.5508 108.197 31.9766H110.605C110.629 32.4277 110.796 32.7734 111.106 33.0137C111.417 33.2539 111.833 33.374 112.354 33.374C112.841 33.374 113.207 33.2832 113.453 33.1016C113.705 32.9141 113.831 32.6709 113.831 32.3721ZM133.105 28.8916C133.105 30.1514 132.883 31.2559 132.438 32.2051C131.992 33.1543 131.354 33.8867 130.521 34.4023C129.695 34.918 128.746 35.1758 127.674 35.1758C126.613 35.1758 125.667 34.9209 124.835 34.4111C124.003 33.9014 123.358 33.1748 122.901 32.2314C122.444 31.2822 122.213 30.1924 122.207 28.9619V28.3291C122.207 27.0693 122.433 25.9619 122.884 25.0068C123.341 24.0459 123.982 23.3105 124.809 22.8008C125.641 22.2852 126.59 22.0273 127.656 22.0273C128.723 22.0273 129.669 22.2852 130.495 22.8008C131.327 23.3105 131.969 24.0459 132.42 25.0068C132.877 25.9619 133.105 27.0664 133.105 28.3203V28.8916ZM130.434 28.3115C130.434 26.9697 130.193 25.9502 129.713 25.2529C129.232 24.5557 128.547 24.207 127.656 24.207C126.771 24.207 126.089 24.5527 125.608 25.2441C125.128 25.9297 124.885 26.9375 124.879 28.2676V28.8916C124.879 30.1982 125.119 31.2119 125.6 31.9326C126.08 32.6533 126.771 33.0137 127.674 33.0137C128.559 33.0137 129.238 32.668 129.713 31.9766C130.188 31.2793 130.428 30.2656 130.434 28.9355V28.3115ZM137.896 23.1523V25.4902H139.521V27.3535H137.896V32.0996C137.896 32.4512 137.963 32.7031 138.098 32.8555C138.232 33.0078 138.49 33.084 138.871 33.084C139.152 33.084 139.401 33.0635 139.618 33.0225V34.9473C139.12 35.0996 138.607 35.1758 138.08 35.1758C136.299 35.1758 135.391 34.2764 135.355 32.4775V27.3535H133.967V25.4902H135.355V23.1523H137.896ZM140.277 30.1572C140.277 29.2139 140.459 28.373 140.822 27.6348C141.186 26.8965 141.707 26.3252 142.387 25.9209C143.072 25.5166 143.866 25.3145 144.769 25.3145C146.052 25.3145 147.098 25.707 147.906 26.4922C148.721 27.2773 149.175 28.3438 149.269 29.6914L149.286 30.3418C149.286 31.8008 148.879 32.9727 148.064 33.8574C147.25 34.7363 146.157 35.1758 144.786 35.1758C143.415 35.1758 142.319 34.7363 141.499 33.8574C140.685 32.9785 140.277 31.7832 140.277 30.2715V30.1572ZM142.817 30.3418C142.817 31.2441 142.987 31.9355 143.327 32.416C143.667 32.8906 144.153 33.1279 144.786 33.1279C145.401 33.1279 145.882 32.8936 146.228 32.4248C146.573 31.9502 146.746 31.1943 146.746 30.1572C146.746 29.2725 146.573 28.5869 146.228 28.1006C145.882 27.6143 145.396 27.3711 144.769 27.3711C144.147 27.3711 143.667 27.6143 143.327 28.1006C142.987 28.5811 142.817 29.3281 142.817 30.3418ZM156.194 27.8721C155.849 27.8252 155.544 27.8018 155.28 27.8018C154.319 27.8018 153.689 28.127 153.391 28.7773V35H150.851V25.4902H153.25L153.32 26.624C153.83 25.751 154.536 25.3145 155.438 25.3145C155.72 25.3145 155.983 25.3525 156.229 25.4287L156.194 27.8721ZM162.672 35C162.555 34.7715 162.47 34.4873 162.417 34.1475C161.802 34.833 161.002 35.1758 160.018 35.1758C159.086 35.1758 158.312 34.9062 157.697 34.3672C157.088 33.8281 156.783 33.1484 156.783 32.3281C156.783 31.3203 157.155 30.5469 157.899 30.0078C158.649 29.4688 159.73 29.1963 161.143 29.1904H162.312V28.6455C162.312 28.2061 162.197 27.8545 161.969 27.5908C161.746 27.3271 161.392 27.1953 160.905 27.1953C160.478 27.1953 160.141 27.2979 159.895 27.5029C159.654 27.708 159.534 27.9893 159.534 28.3467H156.994C156.994 27.7959 157.164 27.2861 157.504 26.8174C157.844 26.3486 158.324 25.9824 158.945 25.7188C159.566 25.4492 160.264 25.3145 161.037 25.3145C162.209 25.3145 163.138 25.6104 163.823 26.2021C164.515 26.7881 164.86 27.6143 164.86 28.6807V32.8027C164.866 33.7051 164.992 34.3877 165.238 34.8506V35H162.672ZM160.571 33.2334C160.946 33.2334 161.292 33.1514 161.608 32.9873C161.925 32.8174 162.159 32.5918 162.312 32.3105V30.6758H161.362C160.091 30.6758 159.414 31.1152 159.332 31.9941L159.323 32.1436C159.323 32.46 159.435 32.7207 159.657 32.9258C159.88 33.1309 160.185 33.2334 160.571 33.2334ZM169.501 25.4902V35.5186C169.501 36.5674 169.223 37.3818 168.666 37.9619C168.109 38.5479 167.307 38.8408 166.258 38.8408C165.818 38.8408 165.399 38.791 165.001 38.6914V36.6787C165.306 36.7314 165.572 36.7578 165.801 36.7578C166.568 36.7578 166.952 36.3506 166.952 35.5361V25.4902H169.501ZM166.75 23.0293C166.75 22.6484 166.876 22.335 167.128 22.0889C167.386 21.8428 167.734 21.7197 168.174 21.7197C168.613 21.7197 168.959 21.8428 169.211 22.0889C169.469 22.335 169.598 22.6484 169.598 23.0293C169.598 23.416 169.466 23.7324 169.202 23.9785C168.944 24.2246 168.602 24.3477 168.174 24.3477C167.746 24.3477 167.4 24.2246 167.137 23.9785C166.879 23.7324 166.75 23.416 166.75 23.0293ZM176.998 35C176.881 34.7715 176.796 34.4873 176.743 34.1475C176.128 34.833 175.328 35.1758 174.344 35.1758C173.412 35.1758 172.639 34.9062 172.023 34.3672C171.414 33.8281 171.109 33.1484 171.109 32.3281C171.109 31.3203 171.481 30.5469 172.226 30.0078C172.976 29.4688 174.057 29.1963 175.469 29.1904H176.638V28.6455C176.638 28.2061 176.523 27.8545 176.295 27.5908C176.072 27.3271 175.718 27.1953 175.231 27.1953C174.804 27.1953 174.467 27.2979 174.221 27.5029C173.98 27.708 173.86 27.9893 173.86 28.3467H171.32C171.32 27.7959 171.49 27.2861 171.83 26.8174C172.17 26.3486 172.65 25.9824 173.271 25.7188C173.893 25.4492 174.59 25.3145 175.363 25.3145C176.535 25.3145 177.464 25.6104 178.149 26.2021C178.841 26.7881 179.187 27.6143 179.187 28.6807V32.8027C179.192 33.7051 179.318 34.3877 179.564 34.8506V35H176.998ZM174.897 33.2334C175.272 33.2334 175.618 33.1514 175.935 32.9873C176.251 32.8174 176.485 32.5918 176.638 32.3105V30.6758H175.688C174.417 30.6758 173.74 31.1152 173.658 31.9941L173.649 32.1436C173.649 32.46 173.761 32.7207 173.983 32.9258C174.206 33.1309 174.511 33.2334 174.897 33.2334ZM185.787 35V22.2031H190.27C191.822 22.2031 193 22.502 193.803 23.0996C194.605 23.6914 195.007 24.5615 195.007 25.71C195.007 26.3369 194.846 26.8906 194.523 27.3711C194.201 27.8457 193.753 28.1943 193.179 28.417C193.835 28.5811 194.351 28.9121 194.726 29.4102C195.106 29.9082 195.297 30.5176 195.297 31.2383C195.297 32.4688 194.904 33.4004 194.119 34.0332C193.334 34.666 192.215 34.9883 190.762 35H185.787ZM188.424 29.4277V32.8818H190.683C191.304 32.8818 191.787 32.7354 192.133 32.4424C192.484 32.1436 192.66 31.7334 192.66 31.2119C192.66 30.04 192.054 29.4453 190.841 29.4277H188.424ZM188.424 27.5645H190.375C191.705 27.541 192.37 27.0107 192.37 25.9736C192.37 25.3936 192.2 24.9775 191.86 24.7256C191.526 24.4678 190.996 24.3389 190.27 24.3389H188.424V27.5645ZM199.797 35H197.248V25.4902H199.797V35ZM197.099 23.0293C197.099 22.6484 197.225 22.335 197.477 22.0889C197.734 21.8428 198.083 21.7197 198.522 21.7197C198.956 21.7197 199.302 21.8428 199.56 22.0889C199.817 22.335 199.946 22.6484 199.946 23.0293C199.946 23.416 199.814 23.7324 199.551 23.9785C199.293 24.2246 198.95 24.3477 198.522 24.3477C198.095 24.3477 197.749 24.2246 197.485 23.9785C197.228 23.7324 197.099 23.416 197.099 23.0293ZM204.815 32.9521H209.465V35H201.572V33.4531L206.046 27.5469H201.704V25.4902H209.324V26.9932L204.815 32.9521Z" fill="white"/>
<path d="M235.032 26.127H231.833V35H230.527V26.127H227.335V25.0469H235.032V26.127ZM240.098 35C240.025 34.8542 239.965 34.5944 239.92 34.2207C239.332 34.8314 238.63 35.1367 237.814 35.1367C237.085 35.1367 236.486 34.9316 236.017 34.5215C235.552 34.1068 235.319 33.5827 235.319 32.9492C235.319 32.179 235.611 31.582 236.194 31.1582C236.782 30.7298 237.607 30.5156 238.669 30.5156H239.899V29.9346C239.899 29.4925 239.767 29.1416 239.503 28.8818C239.239 28.6175 238.849 28.4854 238.334 28.4854C237.883 28.4854 237.505 28.5993 237.199 28.8271C236.894 29.055 236.741 29.3307 236.741 29.6543H235.47C235.47 29.2852 235.6 28.9297 235.859 28.5879C236.124 28.2415 236.479 27.9681 236.926 27.7676C237.377 27.5671 237.871 27.4668 238.409 27.4668C239.261 27.4668 239.929 27.681 240.412 28.1094C240.895 28.5332 241.146 29.1188 241.164 29.8662V33.2705C241.164 33.9495 241.251 34.4896 241.424 34.8906V35H240.098ZM237.999 34.0361C238.396 34.0361 238.771 33.9336 239.127 33.7285C239.482 33.5234 239.74 33.2568 239.899 32.9287V31.4111H238.908C237.359 31.4111 236.584 31.8646 236.584 32.7715C236.584 33.168 236.716 33.4779 236.98 33.7012C237.245 33.9245 237.584 34.0361 237.999 34.0361ZM249.395 31.3838C249.395 32.5094 249.137 33.4163 248.622 34.1045C248.107 34.7926 247.41 35.1367 246.53 35.1367C245.632 35.1367 244.926 34.8519 244.411 34.2822V37.8438H243.146V27.6035H244.302L244.363 28.4238C244.878 27.7858 245.594 27.4668 246.51 27.4668C247.398 27.4668 248.1 27.8018 248.615 28.4717C249.135 29.1416 249.395 30.0736 249.395 31.2676V31.3838ZM248.13 31.2402C248.13 30.4062 247.952 29.7477 247.597 29.2646C247.241 28.7816 246.754 28.54 246.134 28.54C245.368 28.54 244.794 28.8796 244.411 29.5586V33.0928C244.789 33.7673 245.368 34.1045 246.147 34.1045C246.754 34.1045 247.234 33.8652 247.59 33.3867C247.95 32.9036 248.13 32.1882 248.13 31.2402ZM254.173 31.2402C254.173 30.1055 254.442 29.194 254.979 28.5059C255.517 27.8132 256.221 27.4668 257.092 27.4668C257.958 27.4668 258.644 27.763 259.149 28.3555V24.5H260.414V35H259.252L259.19 34.207C258.685 34.8268 257.98 35.1367 257.078 35.1367C256.221 35.1367 255.522 34.7858 254.979 34.084C254.442 33.3822 254.173 32.4661 254.173 31.3359V31.2402ZM255.438 31.3838C255.438 32.2223 255.611 32.8786 255.957 33.3525C256.303 33.8265 256.782 34.0635 257.393 34.0635C258.195 34.0635 258.78 33.7035 259.149 32.9834V29.5859C258.771 28.8887 258.19 28.54 257.406 28.54C256.786 28.54 256.303 28.7793 255.957 29.2578C255.611 29.7363 255.438 30.445 255.438 31.3838ZM263.757 35H262.492V27.6035H263.757V35ZM262.39 25.6416C262.39 25.4365 262.451 25.2633 262.574 25.1221C262.702 24.9808 262.889 24.9102 263.135 24.9102C263.381 24.9102 263.568 24.9808 263.695 25.1221C263.823 25.2633 263.887 25.4365 263.887 25.6416C263.887 25.8467 263.823 26.0176 263.695 26.1543C263.568 26.291 263.381 26.3594 263.135 26.3594C262.889 26.3594 262.702 26.291 262.574 26.1543C262.451 26.0176 262.39 25.8467 262.39 25.6416ZM273.566 33.0381C273.566 32.6963 273.437 32.432 273.177 32.2451C272.922 32.0537 272.473 31.8896 271.83 31.7529C271.192 31.6162 270.684 31.4521 270.306 31.2607C269.932 31.0693 269.654 30.8415 269.472 30.5771C269.294 30.3128 269.205 29.9984 269.205 29.6338C269.205 29.0277 269.46 28.515 269.971 28.0957C270.486 27.6764 271.142 27.4668 271.939 27.4668C272.778 27.4668 273.457 27.6833 273.977 28.1162C274.501 28.5492 274.763 29.1029 274.763 29.7773H273.491C273.491 29.431 273.343 29.1325 273.047 28.8818C272.755 28.6312 272.386 28.5059 271.939 28.5059C271.479 28.5059 271.119 28.6061 270.859 28.8066C270.6 29.0072 270.47 29.2692 270.47 29.5928C270.47 29.8981 270.59 30.1283 270.832 30.2832C271.074 30.4382 271.509 30.5863 272.138 30.7275C272.771 30.8688 273.284 31.0374 273.676 31.2334C274.068 31.4294 274.357 31.6663 274.544 31.9443C274.735 32.2178 274.831 32.5527 274.831 32.9492C274.831 33.61 274.567 34.141 274.038 34.542C273.509 34.9385 272.824 35.1367 271.98 35.1367C271.388 35.1367 270.864 35.0319 270.408 34.8223C269.952 34.6126 269.595 34.321 269.335 33.9473C269.08 33.569 268.952 33.1611 268.952 32.7236H270.217C270.24 33.1475 270.408 33.4847 270.723 33.7354C271.042 33.9814 271.461 34.1045 271.98 34.1045C272.459 34.1045 272.842 34.0088 273.129 33.8174C273.421 33.6214 273.566 33.3617 273.566 33.0381ZM277.853 35H276.588V27.6035H277.853V35ZM276.485 25.6416C276.485 25.4365 276.547 25.2633 276.67 25.1221C276.798 24.9808 276.984 24.9102 277.23 24.9102C277.477 24.9102 277.663 24.9808 277.791 25.1221C277.919 25.2633 277.982 25.4365 277.982 25.6416C277.982 25.8467 277.919 26.0176 277.791 26.1543C277.663 26.291 277.477 26.3594 277.23 26.3594C276.984 26.3594 276.798 26.291 276.67 26.1543C276.547 26.0176 276.485 25.8467 276.485 25.6416ZM281.079 27.6035L281.12 28.5332C281.685 27.8223 282.424 27.4668 283.335 27.4668C284.898 27.4668 285.687 28.3486 285.7 30.1123V35H284.436V30.1055C284.431 29.5723 284.308 29.1781 284.066 28.9229C283.829 28.6676 283.458 28.54 282.952 28.54C282.542 28.54 282.182 28.6494 281.872 28.8682C281.562 29.0869 281.321 29.374 281.147 29.7295V35H279.883V27.6035H281.079ZM288.981 35H287.717V27.6035H288.981V35ZM287.614 25.6416C287.614 25.4365 287.676 25.2633 287.799 25.1221C287.926 24.9808 288.113 24.9102 288.359 24.9102C288.605 24.9102 288.792 24.9808 288.92 25.1221C289.048 25.2633 289.111 25.4365 289.111 25.6416C289.111 25.8467 289.048 26.0176 288.92 26.1543C288.792 26.291 288.605 26.3594 288.359 26.3594C288.113 26.3594 287.926 26.291 287.799 26.1543C287.676 26.0176 287.614 25.8467 287.614 25.6416Z" fill="white"/>
<path d="M227 36.3672H290.048V37.0508H227V36.3672Z" fill="white"/>
</g>
<defs>
<clipPath id="clip0_1386:2418">
<rect width="408" height="56" rx="4" fill="white"/>
</clipPath>
</defs>
</svg>
