<svg width="408" height="85" viewBox="0 0 408 85" fill="none" xmlns="http://www.w3.org/2000/svg">
<g clip-path="url(#clip0)">
<rect width="408" height="85" rx="4" fill="#FF9463"/>
<path fill-rule="evenodd" clip-rule="evenodd" d="M367.375 85H351.658L350.091 79.1535L407.625 63.7375L408 65.1391V74.1145L367.375 85ZM400.145 35.823L395.056 16.8322C394.9 16.2493 394.536 16.0583 393.976 16.2085L387.362 17.9808C388.38 22.9467 385.347 27.7725 380.46 29.0822C375.572 30.3919 370.533 27.7289 368.954 22.9132L362.922 24.5293C363.918 29.5012 360.908 34.321 355.998 35.6367C351.088 36.9524 346.362 34.2053 344.784 29.3895L338.147 31.1678C337.586 31.318 337.373 31.6876 337.523 32.2481L342.612 51.239L400.145 35.823ZM396.92 53.6531L395.995 50.2002C395.767 49.3482 396.115 48.3175 396.967 48.0892L402.438 46.6233C402.729 46.5452 402.651 46.2538 402.651 46.2538L402.573 45.9623C399.552 42.7586 394.358 42.9248 391.154 45.9461C390.167 46.8354 389.307 48.2913 389.053 49.585L358.829 57.6834C356.776 55.7585 353.712 54.729 351.134 55.4199C348.264 56.1889 346.047 58.3208 345.601 61.228C345.679 61.5195 345.757 61.811 346.048 61.7329L346.34 61.6548L351.228 60.3451C352.08 60.1168 353.11 60.4654 353.339 61.3174L354.264 64.7703C354.492 65.6223 354.144 66.653 353.292 66.8813L347.821 68.3472C347.529 68.4253 347.316 68.7948 347.394 69.0863L347.472 69.3778C350.493 72.5814 355.688 72.4152 358.891 69.394C359.878 68.5047 360.738 67.0488 360.992 65.7551L391.485 57.5845C393.611 59.7785 396.602 60.539 399.472 59.77C402.342 59.001 404.559 56.8691 405.005 53.9619C404.927 53.6704 404.849 53.3789 404.557 53.457L404.266 53.5351L399.109 54.9169C398.157 54.8597 397.154 54.5275 396.92 53.6531Z" fill="#FFAA83"/>
<path d="M17.6504 34V19.7812H22.2988C23.8418 19.7812 25.0007 20.1003 25.7754 20.7383C26.5566 21.3763 26.9473 22.3203 26.9473 23.5703C26.9473 24.2344 26.7585 24.8236 26.3809 25.3379C26.0033 25.8457 25.4889 26.2396 24.8379 26.5195C25.6061 26.7344 26.2116 27.1445 26.6543 27.75C27.1035 28.349 27.3281 29.0651 27.3281 29.8984C27.3281 31.1745 26.9147 32.1771 26.0879 32.9062C25.2611 33.6354 24.0924 34 22.582 34H17.6504ZM19.5254 27.3496V32.4668H22.6211C23.4935 32.4668 24.1803 32.2422 24.6816 31.793C25.1895 31.3372 25.4434 30.7122 25.4434 29.918C25.4434 28.2057 24.5124 27.3496 22.6504 27.3496H19.5254ZM19.5254 25.8457H22.3574C23.1777 25.8457 23.832 25.6406 24.3203 25.2305C24.8151 24.8203 25.0625 24.2637 25.0625 23.5605C25.0625 22.7793 24.8346 22.2129 24.3789 21.8613C23.9232 21.5033 23.2298 21.3242 22.2988 21.3242H19.5254V25.8457ZM34.2129 34.1953C32.7806 34.1953 31.6152 33.7266 30.7168 32.7891C29.8184 31.8451 29.3691 30.5853 29.3691 29.0098V28.6777C29.3691 27.6296 29.5677 26.6953 29.9648 25.875C30.3685 25.0482 30.9284 24.4036 31.6445 23.9414C32.3672 23.4727 33.1484 23.2383 33.9883 23.2383C35.362 23.2383 36.4297 23.6908 37.1914 24.5957C37.9531 25.5007 38.334 26.7962 38.334 28.4824V29.2344H31.1758C31.2018 30.276 31.5046 31.1191 32.084 31.7637C32.6699 32.4017 33.4121 32.7207 34.3105 32.7207C34.9486 32.7207 35.4889 32.5905 35.9316 32.3301C36.3743 32.0697 36.7617 31.7246 37.0938 31.2949L38.1973 32.1543C37.3118 33.515 35.9837 34.1953 34.2129 34.1953ZM33.9883 24.7227C33.2591 24.7227 32.6471 24.9896 32.1523 25.5234C31.6576 26.0508 31.3516 26.793 31.2344 27.75H36.5273V27.6133C36.4753 26.6953 36.2279 25.9857 35.7852 25.4844C35.3424 24.9766 34.7435 24.7227 33.9883 24.7227ZM42.3965 34H40.5898V19H42.3965V34ZM51.8203 32.9551C51.1172 33.7819 50.0853 34.1953 48.7246 34.1953C47.5983 34.1953 46.7389 33.8698 46.1465 33.2188C45.5605 32.5612 45.2643 31.5911 45.2578 30.3086V23.4336H47.0645V30.2598C47.0645 31.8613 47.7155 32.6621 49.0176 32.6621C50.3978 32.6621 51.3158 32.1478 51.7715 31.1191V23.4336H53.5781V34H51.8594L51.8203 32.9551ZM58.0312 23.4336L58.0801 24.6055C58.8548 23.694 59.8997 23.2383 61.2148 23.2383C62.6927 23.2383 63.6986 23.8047 64.2324 24.9375C64.584 24.4297 65.0397 24.0195 65.5996 23.707C66.166 23.3945 66.8333 23.2383 67.6016 23.2383C69.9193 23.2383 71.0977 24.4655 71.1367 26.9199V34H69.3301V27.0273C69.3301 26.2721 69.1576 25.709 68.8125 25.3379C68.4674 24.9603 67.888 24.7715 67.0742 24.7715C66.4036 24.7715 65.847 24.9733 65.4043 25.377C64.9616 25.7741 64.7044 26.3112 64.6328 26.9883V34H62.8164V27.0762C62.8164 25.5397 62.0645 24.7715 60.5605 24.7715C59.3757 24.7715 58.5651 25.276 58.1289 26.2852V34H56.3223V23.4336H58.0312ZM87.7578 28.834C87.7578 30.4421 87.39 31.7376 86.6543 32.7207C85.9186 33.7038 84.9225 34.1953 83.666 34.1953C82.3835 34.1953 81.3743 33.7884 80.6387 32.9746V38.0625H78.832V23.4336H80.4824L80.5703 24.6055C81.306 23.694 82.3281 23.2383 83.6367 23.2383C84.9062 23.2383 85.9089 23.7168 86.6445 24.6738C87.3867 25.6309 87.7578 26.9622 87.7578 28.668V28.834ZM85.9512 28.6289C85.9512 27.4375 85.6973 26.4967 85.1895 25.8066C84.6816 25.1165 83.985 24.7715 83.0996 24.7715C82.0059 24.7715 81.1855 25.2565 80.6387 26.2266V31.2754C81.179 32.2389 82.0059 32.7207 83.1191 32.7207C83.985 32.7207 84.6719 32.3789 85.1797 31.6953C85.694 31.0052 85.9512 29.9831 85.9512 28.6289ZM96.5859 32.9551C95.8828 33.7819 94.8509 34.1953 93.4902 34.1953C92.3639 34.1953 91.5046 33.8698 90.9121 33.2188C90.3262 32.5612 90.0299 31.5911 90.0234 30.3086V23.4336H91.8301V30.2598C91.8301 31.8613 92.4811 32.6621 93.7832 32.6621C95.1634 32.6621 96.0814 32.1478 96.5371 31.1191V23.4336H98.3438V34H96.625L96.5859 32.9551ZM102.807 23.4336L102.865 24.7617C103.673 23.7461 104.727 23.2383 106.029 23.2383C108.262 23.2383 109.389 24.498 109.408 27.0176V34H107.602V27.0078C107.595 26.2461 107.419 25.6829 107.074 25.3184C106.736 24.9538 106.205 24.7715 105.482 24.7715C104.896 24.7715 104.382 24.9277 103.939 25.2402C103.497 25.5527 103.152 25.9629 102.904 26.4707V34H101.098V23.4336H102.807ZM115.59 31.3535L118.051 23.4336H119.984L115.736 35.6309C115.079 37.3887 114.034 38.2676 112.602 38.2676L112.26 38.2383L111.586 38.1113V36.6465L112.074 36.6855C112.686 36.6855 113.161 36.5618 113.5 36.3145C113.845 36.0671 114.128 35.6146 114.35 34.957L114.75 33.8828L110.98 23.4336H112.953L115.59 31.3535ZM127.973 34C127.868 33.7917 127.784 33.4206 127.719 32.8867C126.879 33.7591 125.876 34.1953 124.711 34.1953C123.669 34.1953 122.813 33.9023 122.143 33.3164C121.479 32.724 121.146 31.9753 121.146 31.0703C121.146 29.9701 121.563 29.1172 122.396 28.5117C123.236 27.8997 124.415 27.5938 125.932 27.5938H127.689V26.7637C127.689 26.1322 127.501 25.6309 127.123 25.2598C126.745 24.8822 126.189 24.6934 125.453 24.6934C124.809 24.6934 124.268 24.8561 123.832 25.1816C123.396 25.5072 123.178 25.901 123.178 26.3633H121.361C121.361 25.8359 121.547 25.3281 121.918 24.8398C122.296 24.3451 122.803 23.9544 123.441 23.668C124.086 23.3815 124.792 23.2383 125.561 23.2383C126.778 23.2383 127.732 23.5443 128.422 24.1562C129.112 24.7617 129.47 25.5983 129.496 26.666V31.5293C129.496 32.4993 129.62 33.2708 129.867 33.8438V34H127.973ZM124.975 32.623C125.541 32.623 126.078 32.4766 126.586 32.1836C127.094 31.8906 127.462 31.5098 127.689 31.041V28.873H126.273C124.06 28.873 122.953 29.5208 122.953 30.8164C122.953 31.3828 123.142 31.8255 123.52 32.1445C123.897 32.4635 124.382 32.623 124.975 32.623ZM143.812 34C143.708 33.7917 143.624 33.4206 143.559 32.8867C142.719 33.7591 141.716 34.1953 140.551 34.1953C139.509 34.1953 138.653 33.9023 137.982 33.3164C137.318 32.724 136.986 31.9753 136.986 31.0703C136.986 29.9701 137.403 29.1172 138.236 28.5117C139.076 27.8997 140.255 27.5938 141.771 27.5938H143.529V26.7637C143.529 26.1322 143.34 25.6309 142.963 25.2598C142.585 24.8822 142.029 24.6934 141.293 24.6934C140.648 24.6934 140.108 24.8561 139.672 25.1816C139.236 25.5072 139.018 25.901 139.018 26.3633H137.201C137.201 25.8359 137.387 25.3281 137.758 24.8398C138.135 24.3451 138.643 23.9544 139.281 23.668C139.926 23.3815 140.632 23.2383 141.4 23.2383C142.618 23.2383 143.572 23.5443 144.262 24.1562C144.952 24.7617 145.31 25.5983 145.336 26.666V31.5293C145.336 32.4993 145.46 33.2708 145.707 33.8438V34H143.812ZM140.814 32.623C141.381 32.623 141.918 32.4766 142.426 32.1836C142.934 31.8906 143.301 31.5098 143.529 31.041V28.873H142.113C139.9 28.873 138.793 29.5208 138.793 30.8164C138.793 31.3828 138.982 31.8255 139.359 32.1445C139.737 32.4635 140.222 32.623 140.814 32.623ZM151.117 29.1074L149.984 30.2891V34H148.178V19H149.984V28.0723L150.951 26.9102L154.242 23.4336H156.439L152.328 27.8477L156.918 34H154.799L151.117 29.1074ZM164.828 32.9551C164.125 33.7819 163.093 34.1953 161.732 34.1953C160.606 34.1953 159.747 33.8698 159.154 33.2188C158.568 32.5612 158.272 31.5911 158.266 30.3086V23.4336H160.072V30.2598C160.072 31.8613 160.723 32.6621 162.025 32.6621C163.406 32.6621 164.324 32.1478 164.779 31.1191V23.4336H166.586V34H164.867L164.828 32.9551ZM171.049 23.4336L171.107 24.7617C171.915 23.7461 172.969 23.2383 174.271 23.2383C176.505 23.2383 177.631 24.498 177.65 27.0176V34H175.844V27.0078C175.837 26.2461 175.661 25.6829 175.316 25.3184C174.978 24.9538 174.447 24.7715 173.725 24.7715C173.139 24.7715 172.624 24.9277 172.182 25.2402C171.739 25.5527 171.394 25.9629 171.146 26.4707V34H169.34V23.4336H171.049ZM196.557 27.3496C196.557 28.7428 196.322 29.9603 195.854 31.002C195.385 32.0371 194.721 32.8281 193.861 33.375C193.002 33.9219 191.999 34.1953 190.854 34.1953C189.734 34.1953 188.741 33.9219 187.875 33.375C187.009 32.8216 186.335 32.0371 185.854 31.0215C185.378 29.9993 185.134 28.8177 185.121 27.4766V26.4512C185.121 25.084 185.359 23.8763 185.834 22.8281C186.309 21.7799 186.98 20.9792 187.846 20.4258C188.718 19.8659 189.714 19.5859 190.834 19.5859C191.973 19.5859 192.976 19.8626 193.842 20.416C194.714 20.9629 195.385 21.7604 195.854 22.8086C196.322 23.8503 196.557 25.0645 196.557 26.4512V27.3496ZM194.691 26.4316C194.691 24.7454 194.353 23.4531 193.676 22.5547C192.999 21.6497 192.051 21.1973 190.834 21.1973C189.649 21.1973 188.715 21.6497 188.031 22.5547C187.354 23.4531 187.006 24.7031 186.986 26.3047V27.3496C186.986 28.9837 187.328 30.2695 188.012 31.207C188.702 32.138 189.649 32.6035 190.854 32.6035C192.064 32.6035 193.002 32.1641 193.666 31.2852C194.33 30.3997 194.672 29.1335 194.691 27.4863V26.4316ZM201.537 20.875V23.4336H203.51V24.8301H201.537V31.3828C201.537 31.806 201.625 32.125 201.801 32.3398C201.977 32.5482 202.276 32.6523 202.699 32.6523C202.908 32.6523 203.194 32.6133 203.559 32.5352V34C203.083 34.1302 202.621 34.1953 202.172 34.1953C201.365 34.1953 200.756 33.9512 200.346 33.4629C199.936 32.9746 199.73 32.2812 199.73 31.3828V24.8301H197.807V23.4336H199.73V20.875H201.537ZM204.955 28.6191C204.955 27.584 205.157 26.653 205.561 25.8262C205.971 24.9993 206.537 24.3613 207.26 23.9121C207.989 23.4629 208.819 23.2383 209.75 23.2383C211.189 23.2383 212.351 23.7363 213.236 24.7324C214.128 25.7285 214.574 27.0534 214.574 28.707V28.834C214.574 29.8626 214.376 30.7871 213.979 31.6074C213.588 32.4212 213.025 33.056 212.289 33.5117C211.56 33.9674 210.72 34.1953 209.77 34.1953C208.337 34.1953 207.175 33.6973 206.283 32.7012C205.398 31.7051 204.955 30.3867 204.955 28.7461V28.6191ZM206.771 28.834C206.771 30.0059 207.042 30.9466 207.582 31.6562C208.129 32.3659 208.858 32.7207 209.77 32.7207C210.688 32.7207 211.417 32.3626 211.957 31.6465C212.497 30.9238 212.768 29.9147 212.768 28.6191C212.768 27.4603 212.491 26.5228 211.938 25.8066C211.391 25.084 210.661 24.7227 209.75 24.7227C208.858 24.7227 208.139 25.0775 207.592 25.7871C207.045 26.4967 206.771 27.5124 206.771 28.834ZM221.947 25.0547C221.674 25.0091 221.378 24.9863 221.059 24.9863C219.874 24.9863 219.07 25.4909 218.646 26.5V34H216.84V23.4336H218.598L218.627 24.6543C219.219 23.7103 220.059 23.2383 221.146 23.2383C221.498 23.2383 221.765 23.2839 221.947 23.375V25.0547ZM229.75 34C229.646 33.7917 229.561 33.4206 229.496 32.8867C228.656 33.7591 227.654 34.1953 226.488 34.1953C225.447 34.1953 224.59 33.9023 223.92 33.3164C223.256 32.724 222.924 31.9753 222.924 31.0703C222.924 29.9701 223.34 29.1172 224.174 28.5117C225.014 27.8997 226.192 27.5938 227.709 27.5938H229.467V26.7637C229.467 26.1322 229.278 25.6309 228.9 25.2598C228.523 24.8822 227.966 24.6934 227.23 24.6934C226.586 24.6934 226.046 24.8561 225.609 25.1816C225.173 25.5072 224.955 25.901 224.955 26.3633H223.139C223.139 25.8359 223.324 25.3281 223.695 24.8398C224.073 24.3451 224.581 23.9544 225.219 23.668C225.863 23.3815 226.57 23.2383 227.338 23.2383C228.555 23.2383 229.509 23.5443 230.199 24.1562C230.889 24.7617 231.247 25.5983 231.273 26.666V31.5293C231.273 32.4993 231.397 33.2708 231.645 33.8438V34H229.75ZM226.752 32.623C227.318 32.623 227.855 32.4766 228.363 32.1836C228.871 31.8906 229.239 31.5098 229.467 31.041V28.873H228.051C225.837 28.873 224.73 29.5208 224.73 30.8164C224.73 31.3828 224.919 31.8255 225.297 32.1445C225.674 32.4635 226.16 32.623 226.752 32.623ZM235.971 23.4336V35.2207C235.971 37.252 235.049 38.2676 233.207 38.2676C232.81 38.2676 232.442 38.209 232.104 38.0918V36.6465C232.312 36.6986 232.585 36.7246 232.924 36.7246C233.327 36.7246 233.633 36.6139 233.842 36.3926C234.057 36.1777 234.164 35.8001 234.164 35.2598V23.4336H235.971ZM233.979 20.6309C233.979 20.3444 234.066 20.1003 234.242 19.8984C234.424 19.6901 234.688 19.5859 235.033 19.5859C235.385 19.5859 235.652 19.6868 235.834 19.8887C236.016 20.0905 236.107 20.3379 236.107 20.6309C236.107 20.9238 236.016 21.168 235.834 21.3633C235.652 21.5586 235.385 21.6562 235.033 21.6562C234.682 21.6562 234.418 21.5586 234.242 21.3633C234.066 21.168 233.979 20.9238 233.979 20.6309ZM245.414 34C245.31 33.7917 245.225 33.4206 245.16 32.8867C244.32 33.7591 243.318 34.1953 242.152 34.1953C241.111 34.1953 240.255 33.9023 239.584 33.3164C238.92 32.724 238.588 31.9753 238.588 31.0703C238.588 29.9701 239.005 29.1172 239.838 28.5117C240.678 27.8997 241.856 27.5938 243.373 27.5938H245.131V26.7637C245.131 26.1322 244.942 25.6309 244.564 25.2598C244.187 24.8822 243.63 24.6934 242.895 24.6934C242.25 24.6934 241.71 24.8561 241.273 25.1816C240.837 25.5072 240.619 25.901 240.619 26.3633H238.803C238.803 25.8359 238.988 25.3281 239.359 24.8398C239.737 24.3451 240.245 23.9544 240.883 23.668C241.527 23.3815 242.234 23.2383 243.002 23.2383C244.219 23.2383 245.173 23.5443 245.863 24.1562C246.553 24.7617 246.911 25.5983 246.938 26.666V31.5293C246.938 32.4993 247.061 33.2708 247.309 33.8438V34H245.414ZM242.416 32.623C242.982 32.623 243.52 32.4766 244.027 32.1836C244.535 31.8906 244.903 31.5098 245.131 31.041V28.873H243.715C241.501 28.873 240.395 29.5208 240.395 30.8164C240.395 31.3828 240.583 31.8255 240.961 32.1445C241.339 32.4635 241.824 32.623 242.416 32.623ZM255.014 34V19.7812H259.662C261.205 19.7812 262.364 20.1003 263.139 20.7383C263.92 21.3763 264.311 22.3203 264.311 23.5703C264.311 24.2344 264.122 24.8236 263.744 25.3379C263.367 25.8457 262.852 26.2396 262.201 26.5195C262.969 26.7344 263.575 27.1445 264.018 27.75C264.467 28.349 264.691 29.0651 264.691 29.8984C264.691 31.1745 264.278 32.1771 263.451 32.9062C262.624 33.6354 261.456 34 259.945 34H255.014ZM256.889 27.3496V32.4668H259.984C260.857 32.4668 261.544 32.2422 262.045 31.793C262.553 31.3372 262.807 30.7122 262.807 29.918C262.807 28.2057 261.876 27.3496 260.014 27.3496H256.889ZM256.889 25.8457H259.721C260.541 25.8457 261.195 25.6406 261.684 25.2305C262.178 24.8203 262.426 24.2637 262.426 23.5605C262.426 22.7793 262.198 22.2129 261.742 21.8613C261.286 21.5033 260.593 21.3242 259.662 21.3242H256.889V25.8457ZM269.154 34H267.348V23.4336H269.154V34ZM267.201 20.6309C267.201 20.3379 267.289 20.0905 267.465 19.8887C267.647 19.6868 267.914 19.5859 268.266 19.5859C268.617 19.5859 268.884 19.6868 269.066 19.8887C269.249 20.0905 269.34 20.3379 269.34 20.6309C269.34 20.9238 269.249 21.168 269.066 21.3633C268.884 21.5586 268.617 21.6562 268.266 21.6562C267.914 21.6562 267.647 21.5586 267.465 21.3633C267.289 21.168 267.201 20.9238 267.201 20.6309ZM273.754 32.5254H279.936V34H271.547V32.6719L277.377 24.9277H271.635V23.4336H279.643V24.7129L273.754 32.5254ZM284.096 29.9961C284.109 29.2214 284.197 28.6094 284.359 28.1602C284.522 27.7109 284.854 27.2129 285.355 26.666L286.635 25.3477C287.182 24.7292 287.455 24.0651 287.455 23.3555C287.455 22.6719 287.276 22.138 286.918 21.7539C286.56 21.3633 286.039 21.168 285.355 21.168C284.691 21.168 284.158 21.3438 283.754 21.6953C283.35 22.0469 283.148 22.5189 283.148 23.1113H281.342C281.355 22.0566 281.729 21.207 282.465 20.5625C283.207 19.9115 284.171 19.5859 285.355 19.5859C286.586 19.5859 287.543 19.918 288.227 20.582C288.917 21.2396 289.262 22.1445 289.262 23.2969C289.262 24.4362 288.734 25.5592 287.68 26.666L286.615 27.7207C286.14 28.248 285.902 29.0065 285.902 29.9961H284.096ZM284.018 33.0918C284.018 32.7988 284.105 32.5547 284.281 32.3594C284.464 32.1576 284.73 32.0566 285.082 32.0566C285.434 32.0566 285.701 32.1576 285.883 32.3594C286.065 32.5547 286.156 32.7988 286.156 33.0918C286.156 33.3848 286.065 33.6289 285.883 33.8242C285.701 34.013 285.434 34.1074 285.082 34.1074C284.73 34.1074 284.464 34.013 284.281 33.8242C284.105 33.6289 284.018 33.3848 284.018 33.0918ZM17.5234 62V44.9375H22.7734C24.2734 44.9375 25.6133 45.2773 26.793 45.957C27.9805 46.6289 28.9062 47.5898 29.5703 48.8398C30.2344 50.082 30.5664 51.4961 30.5664 53.082V53.8672C30.5664 55.4531 30.2383 56.8633 29.582 58.0977C28.9336 59.332 28.0156 60.2891 26.8281 60.9688C25.6406 61.6484 24.3008 61.9922 22.8086 62H17.5234ZM21.0391 47.7852V59.1758H22.7383C24.1133 59.1758 25.1641 58.7266 25.8906 57.8281C26.6172 56.9297 26.9883 55.6445 27.0039 53.9727V53.0703C27.0039 51.3359 26.6445 50.0234 25.9258 49.1328C25.207 48.2344 24.1562 47.7852 22.7734 47.7852H21.0391ZM40.2578 62C40.1016 61.6953 39.9883 61.3164 39.918 60.8633C39.0977 61.7773 38.0312 62.2344 36.7188 62.2344C35.4766 62.2344 34.4453 61.875 33.625 61.1562C32.8125 60.4375 32.4062 59.5312 32.4062 58.4375C32.4062 57.0938 32.9023 56.0625 33.8945 55.3438C34.8945 54.625 36.3359 54.2617 38.2188 54.2539H39.7773V53.5273C39.7773 52.9414 39.625 52.4727 39.3203 52.1211C39.0234 51.7695 38.5508 51.5938 37.9023 51.5938C37.332 51.5938 36.8828 51.7305 36.5547 52.0039C36.2344 52.2773 36.0742 52.6523 36.0742 53.1289H32.6875C32.6875 52.3945 32.9141 51.7148 33.3672 51.0898C33.8203 50.4648 34.4609 49.9766 35.2891 49.625C36.1172 49.2656 37.0469 49.0859 38.0781 49.0859C39.6406 49.0859 40.8789 49.4805 41.793 50.2695C42.7148 51.0508 43.1758 52.1523 43.1758 53.5742V59.0703C43.1836 60.2734 43.3516 61.1836 43.6797 61.8008V62H40.2578ZM37.457 59.6445C37.957 59.6445 38.418 59.5352 38.8398 59.3164C39.2617 59.0898 39.5742 58.7891 39.7773 58.4141V56.2344H38.5117C36.8164 56.2344 35.9141 56.8203 35.8047 57.9922L35.793 58.1914C35.793 58.6133 35.9414 58.9609 36.2383 59.2344C36.5352 59.5078 36.9414 59.6445 37.457 59.6445ZM46.7031 62V51.8047H44.8164V49.3203H46.7031V48.2422C46.7031 46.8203 47.1094 45.7188 47.9219 44.9375C48.7422 44.1484 49.8867 43.7539 51.3555 43.7539C51.8242 43.7539 52.3984 43.832 53.0781 43.9883L53.043 46.6133C52.7617 46.543 52.418 46.5078 52.0117 46.5078C50.7383 46.5078 50.1016 47.1055 50.1016 48.3008V49.3203H52.6211V51.8047H50.1016V62H46.7031ZM58.4336 46.2031V49.3203H60.6016V51.8047H58.4336V58.1328C58.4336 58.6016 58.5234 58.9375 58.7031 59.1406C58.8828 59.3438 59.2266 59.4453 59.7344 59.4453C60.1094 59.4453 60.4414 59.418 60.7305 59.3633V61.9297C60.0664 62.1328 59.3828 62.2344 58.6797 62.2344C56.3047 62.2344 55.0938 61.0352 55.0469 58.6367V51.8047H53.1953V49.3203H55.0469V46.2031H58.4336ZM69.8359 62C69.6797 61.6953 69.5664 61.3164 69.4961 60.8633C68.6758 61.7773 67.6094 62.2344 66.2969 62.2344C65.0547 62.2344 64.0234 61.875 63.2031 61.1562C62.3906 60.4375 61.9844 59.5312 61.9844 58.4375C61.9844 57.0938 62.4805 56.0625 63.4727 55.3438C64.4727 54.625 65.9141 54.2617 67.7969 54.2539H69.3555V53.5273C69.3555 52.9414 69.2031 52.4727 68.8984 52.1211C68.6016 51.7695 68.1289 51.5938 67.4805 51.5938C66.9102 51.5938 66.4609 51.7305 66.1328 52.0039C65.8125 52.2773 65.6523 52.6523 65.6523 53.1289H62.2656C62.2656 52.3945 62.4922 51.7148 62.9453 51.0898C63.3984 50.4648 64.0391 49.9766 64.8672 49.625C65.6953 49.2656 66.625 49.0859 67.6562 49.0859C69.2188 49.0859 70.457 49.4805 71.3711 50.2695C72.293 51.0508 72.7539 52.1523 72.7539 53.5742V59.0703C72.7617 60.2734 72.9297 61.1836 73.2578 61.8008V62H69.8359ZM67.0352 59.6445C67.5352 59.6445 67.9961 59.5352 68.418 59.3164C68.8398 59.0898 69.1523 58.7891 69.3555 58.4141V56.2344H68.0898C66.3945 56.2344 65.4922 56.8203 65.3828 57.9922L65.3711 58.1914C65.3711 58.6133 65.5195 58.9609 65.8164 59.2344C66.1133 59.5078 66.5195 59.6445 67.0352 59.6445ZM82.4805 52.4961C82.0195 52.4336 81.6133 52.4023 81.2617 52.4023C79.9805 52.4023 79.1406 52.8359 78.7422 53.7031V62H75.3555V49.3203H78.5547L78.6484 50.832C79.3281 49.668 80.2695 49.0859 81.4727 49.0859C81.8477 49.0859 82.1992 49.1367 82.5273 49.2383L82.4805 52.4961ZM89.6055 55.5664C89.6055 53.6211 90.0664 52.0547 90.9883 50.8672C91.918 49.6797 93.168 49.0859 94.7383 49.0859C96.1289 49.0859 97.2109 49.5625 97.9844 50.5156L98.125 49.3203H101.195V61.5781C101.195 62.6875 100.941 63.6523 100.434 64.4727C99.9336 65.293 99.2266 65.918 98.3125 66.3477C97.3984 66.7773 96.3281 66.9922 95.1016 66.9922C94.1719 66.9922 93.2656 66.8047 92.3828 66.4297C91.5 66.0625 90.832 65.5859 90.3789 65L91.8789 62.9375C92.7227 63.8828 93.7461 64.3555 94.9492 64.3555C95.8477 64.3555 96.5469 64.1133 97.0469 63.6289C97.5469 63.1523 97.7969 62.4727 97.7969 61.5898V60.9102C97.0156 61.793 95.9883 62.2344 94.7148 62.2344C93.1914 62.2344 91.957 61.6406 91.0117 60.4531C90.0742 59.2578 89.6055 57.6758 89.6055 55.707V55.5664ZM92.9922 55.8125C92.9922 56.9609 93.2227 57.8633 93.6836 58.5195C94.1445 59.168 94.7773 59.4922 95.582 59.4922C96.6133 59.4922 97.3516 59.1055 97.7969 58.332V53C97.3438 52.2266 96.6133 51.8398 95.6055 51.8398C94.793 51.8398 94.1523 52.1719 93.6836 52.8359C93.2227 53.5 92.9922 54.4922 92.9922 55.8125ZM110.934 52.4961C110.473 52.4336 110.066 52.4023 109.715 52.4023C108.434 52.4023 107.594 52.8359 107.195 53.7031V62H103.809V49.3203H107.008L107.102 50.832C107.781 49.668 108.723 49.0859 109.926 49.0859C110.301 49.0859 110.652 49.1367 110.98 49.2383L110.934 52.4961ZM119.57 62C119.414 61.6953 119.301 61.3164 119.23 60.8633C118.41 61.7773 117.344 62.2344 116.031 62.2344C114.789 62.2344 113.758 61.875 112.938 61.1562C112.125 60.4375 111.719 59.5312 111.719 58.4375C111.719 57.0938 112.215 56.0625 113.207 55.3438C114.207 54.625 115.648 54.2617 117.531 54.2539H119.09V53.5273C119.09 52.9414 118.938 52.4727 118.633 52.1211C118.336 51.7695 117.863 51.5938 117.215 51.5938C116.645 51.5938 116.195 51.7305 115.867 52.0039C115.547 52.2773 115.387 52.6523 115.387 53.1289H112C112 52.3945 112.227 51.7148 112.68 51.0898C113.133 50.4648 113.773 49.9766 114.602 49.625C115.43 49.2656 116.359 49.0859 117.391 49.0859C118.953 49.0859 120.191 49.4805 121.105 50.2695C122.027 51.0508 122.488 52.1523 122.488 53.5742V59.0703C122.496 60.2734 122.664 61.1836 122.992 61.8008V62H119.57ZM116.77 59.6445C117.27 59.6445 117.73 59.5352 118.152 59.3164C118.574 59.0898 118.887 58.7891 119.09 58.4141V56.2344H117.824C116.129 56.2344 115.227 56.8203 115.117 57.9922L115.105 58.1914C115.105 58.6133 115.254 58.9609 115.551 59.2344C115.848 59.5078 116.254 59.6445 116.77 59.6445ZM129.145 46.2031V49.3203H131.312V51.8047H129.145V58.1328C129.145 58.6016 129.234 58.9375 129.414 59.1406C129.594 59.3438 129.938 59.4453 130.445 59.4453C130.82 59.4453 131.152 59.418 131.441 59.3633V61.9297C130.777 62.1328 130.094 62.2344 129.391 62.2344C127.016 62.2344 125.805 61.0352 125.758 58.6367V51.8047H123.906V49.3203H125.758V46.2031H129.145ZM136.773 62H133.375V49.3203H136.773V62ZM133.176 46.0391C133.176 45.5312 133.344 45.1133 133.68 44.7852C134.023 44.457 134.488 44.293 135.074 44.293C135.652 44.293 136.113 44.457 136.457 44.7852C136.801 45.1133 136.973 45.5312 136.973 46.0391C136.973 46.5547 136.797 46.9766 136.445 47.3047C136.102 47.6328 135.645 47.7969 135.074 47.7969C134.504 47.7969 134.043 47.6328 133.691 47.3047C133.348 46.9766 133.176 46.5547 133.176 46.0391ZM146.441 58.4961C146.441 58.082 146.234 57.7578 145.82 57.5234C145.414 57.2812 144.758 57.0664 143.852 56.8789C140.836 56.2461 139.328 54.9648 139.328 53.0352C139.328 51.9102 139.793 50.9727 140.723 50.2227C141.66 49.4648 142.883 49.0859 144.391 49.0859C146 49.0859 147.285 49.4648 148.246 50.2227C149.215 50.9805 149.699 51.9648 149.699 53.1758H146.312C146.312 52.6914 146.156 52.293 145.844 51.9805C145.531 51.6602 145.043 51.5 144.379 51.5C143.809 51.5 143.367 51.6289 143.055 51.8867C142.742 52.1445 142.586 52.4727 142.586 52.8711C142.586 53.2461 142.762 53.5508 143.113 53.7852C143.473 54.0117 144.074 54.2109 144.918 54.3828C145.762 54.5469 146.473 54.7344 147.051 54.9453C148.84 55.6016 149.734 56.7383 149.734 58.3555C149.734 59.5117 149.238 60.4492 148.246 61.168C147.254 61.8789 145.973 62.2344 144.402 62.2344C143.34 62.2344 142.395 62.0469 141.566 61.6719C140.746 61.2891 140.102 60.7695 139.633 60.1133C139.164 59.4492 138.93 58.7344 138.93 57.9688H142.141C142.172 58.5703 142.395 59.0312 142.809 59.3516C143.223 59.6719 143.777 59.832 144.473 59.832C145.121 59.832 145.609 59.7109 145.938 59.4688C146.273 59.2188 146.441 58.8945 146.441 58.4961ZM157.375 55.5664C157.375 53.5898 157.816 52.0156 158.699 50.8438C159.59 49.6719 160.805 49.0859 162.344 49.0859C163.578 49.0859 164.598 49.5469 165.402 50.4688V44H168.801V62H165.742L165.578 60.6523C164.734 61.707 163.648 62.2344 162.32 62.2344C160.828 62.2344 159.629 61.6484 158.723 60.4766C157.824 59.2969 157.375 57.6602 157.375 55.5664ZM160.762 55.8125C160.762 57 160.969 57.9102 161.383 58.543C161.797 59.1758 162.398 59.4922 163.188 59.4922C164.234 59.4922 164.973 59.0508 165.402 58.168V53.1641C164.98 52.2812 164.25 51.8398 163.211 51.8398C161.578 51.8398 160.762 53.1641 160.762 55.8125ZM175 62H171.602V49.3203H175V62ZM171.402 46.0391C171.402 45.5312 171.57 45.1133 171.906 44.7852C172.25 44.457 172.715 44.293 173.301 44.293C173.879 44.293 174.34 44.457 174.684 44.7852C175.027 45.1133 175.199 45.5312 175.199 46.0391C175.199 46.5547 175.023 46.9766 174.672 47.3047C174.328 47.6328 173.871 47.7969 173.301 47.7969C172.73 47.7969 172.27 47.6328 171.918 47.3047C171.574 46.9766 171.402 46.5547 171.402 46.0391ZM190.645 58.4961C190.645 58.082 190.438 57.7578 190.023 57.5234C189.617 57.2812 188.961 57.0664 188.055 56.8789C185.039 56.2461 183.531 54.9648 183.531 53.0352C183.531 51.9102 183.996 50.9727 184.926 50.2227C185.863 49.4648 187.086 49.0859 188.594 49.0859C190.203 49.0859 191.488 49.4648 192.449 50.2227C193.418 50.9805 193.902 51.9648 193.902 53.1758H190.516C190.516 52.6914 190.359 52.293 190.047 51.9805C189.734 51.6602 189.246 51.5 188.582 51.5C188.012 51.5 187.57 51.6289 187.258 51.8867C186.945 52.1445 186.789 52.4727 186.789 52.8711C186.789 53.2461 186.965 53.5508 187.316 53.7852C187.676 54.0117 188.277 54.2109 189.121 54.3828C189.965 54.5469 190.676 54.7344 191.254 54.9453C193.043 55.6016 193.938 56.7383 193.938 58.3555C193.938 59.5117 193.441 60.4492 192.449 61.168C191.457 61.8789 190.176 62.2344 188.605 62.2344C187.543 62.2344 186.598 62.0469 185.77 61.6719C184.949 61.2891 184.305 60.7695 183.836 60.1133C183.367 59.4492 183.133 58.7344 183.133 57.9688H186.344C186.375 58.5703 186.598 59.0312 187.012 59.3516C187.426 59.6719 187.98 59.832 188.676 59.832C189.324 59.832 189.812 59.7109 190.141 59.4688C190.477 59.2188 190.645 58.8945 190.645 58.4961ZM199.703 62H196.305V49.3203H199.703V62ZM196.105 46.0391C196.105 45.5312 196.273 45.1133 196.609 44.7852C196.953 44.457 197.418 44.293 198.004 44.293C198.582 44.293 199.043 44.457 199.387 44.7852C199.73 45.1133 199.902 45.5312 199.902 46.0391C199.902 46.5547 199.727 46.9766 199.375 47.3047C199.031 47.6328 198.574 47.7969 198.004 47.7969C197.434 47.7969 196.973 47.6328 196.621 47.3047C196.277 46.9766 196.105 46.5547 196.105 46.0391ZM205.621 49.3203L205.727 50.7852C206.633 49.6523 207.848 49.0859 209.371 49.0859C210.715 49.0859 211.715 49.4805 212.371 50.2695C213.027 51.0586 213.363 52.2383 213.379 53.8086V62H209.992V53.8906C209.992 53.1719 209.836 52.6523 209.523 52.332C209.211 52.0039 208.691 51.8398 207.965 51.8398C207.012 51.8398 206.297 52.2461 205.82 53.0586V62H202.434V49.3203H205.621ZM219.531 62H216.133V49.3203H219.531V62ZM215.934 46.0391C215.934 45.5312 216.102 45.1133 216.438 44.7852C216.781 44.457 217.246 44.293 217.832 44.293C218.41 44.293 218.871 44.457 219.215 44.7852C219.559 45.1133 219.73 45.5312 219.73 46.0391C219.73 46.5547 219.555 46.9766 219.203 47.3047C218.859 47.6328 218.402 47.7969 217.832 47.7969C217.262 47.7969 216.801 47.6328 216.449 47.3047C216.105 46.9766 215.934 46.5547 215.934 46.0391ZM225.777 56.7617H222.965L222.566 44.9375H226.176L225.777 56.7617ZM224.371 58.6133C224.941 58.6133 225.398 58.7812 225.742 59.1172C226.094 59.4531 226.27 59.8828 226.27 60.4062C226.27 60.9219 226.094 61.3477 225.742 61.6836C225.398 62.0195 224.941 62.1875 224.371 62.1875C223.809 62.1875 223.352 62.0195 223 61.6836C222.656 61.3477 222.484 60.9219 222.484 60.4062C222.484 59.8906 222.656 59.4648 223 59.1289C223.352 58.7852 223.809 58.6133 224.371 58.6133Z" fill="white"/>
</g>
<defs>
<clipPath id="clip0">
<rect width="408" height="85" rx="4" fill="white"/>
</clipPath>
</defs>
</svg>
