<svg width="274" height="80" viewBox="0 0 274 80" fill="none" xmlns="http://www.w3.org/2000/svg">
<rect width="274" height="80" rx="4" fill="#FF9463"/>
<path fill-rule="evenodd" clip-rule="evenodd" d="M233.375 80H217.658L216.091 74.1535L273.625 58.7375L274 60.1391V69.1144L233.375 80ZM266.145 30.823L261.056 11.8322C260.9 11.2492 260.536 11.0583 259.976 11.2085L253.362 12.9808C254.38 17.9467 251.347 22.7725 246.46 24.0822C241.572 25.3919 236.533 22.7289 234.954 17.9132L228.922 19.5292C229.918 24.5012 226.908 29.3209 221.998 30.6366C217.088 31.9523 212.362 29.2053 210.784 24.3895L204.147 26.1678C203.586 26.318 203.373 26.6876 203.523 27.2481L208.612 46.239L266.145 30.823ZM262.92 48.653L261.995 45.2002C261.767 44.3482 262.115 43.3175 262.967 43.0892L268.438 41.6233C268.729 41.5452 268.651 41.2538 268.651 41.2538L268.573 40.9623C265.552 37.7586 260.358 37.9248 257.154 40.946C256.167 41.8354 255.307 43.2913 255.053 44.585L224.829 52.6834C222.776 50.7585 219.712 49.729 217.134 50.4199C214.264 51.1889 212.047 53.3207 211.601 56.228C211.679 56.5195 211.757 56.811 212.048 56.7329L212.34 56.6548L217.228 55.3451C218.08 55.1168 219.11 55.4654 219.339 56.3174L220.264 59.7703C220.492 60.6223 220.144 61.653 219.292 61.8812L213.821 63.3471C213.529 63.4252 213.316 63.7948 213.394 64.0863L213.472 64.3778C216.493 67.5814 221.688 67.4152 224.891 64.394C225.878 63.5047 226.738 62.0488 226.992 60.7551L257.485 52.5845C259.611 54.7785 262.602 55.539 265.472 54.77C268.342 54.001 270.559 51.8691 271.005 48.9618C270.927 48.6704 270.849 48.3789 270.557 48.457L270.266 48.5351L265.109 49.9169C264.157 49.8597 263.154 49.5275 262.92 48.653Z" fill="#FFAA83"/>
<path d="M17.0728 33V23.7578H20.0942C21.0972 23.7578 21.8504 23.9652 22.354 24.3799C22.8618 24.7946 23.1157 25.4082 23.1157 26.2207C23.1157 26.6523 22.993 27.0353 22.7476 27.3696C22.5021 27.6997 22.1678 27.9557 21.7446 28.1377C22.244 28.2773 22.6375 28.5439 22.9253 28.9375C23.2173 29.3268 23.3633 29.7923 23.3633 30.334C23.3633 31.1634 23.0946 31.8151 22.5571 32.2891C22.0197 32.763 21.2601 33 20.2783 33H17.0728ZM18.2915 28.6772V32.0034H20.3037C20.8708 32.0034 21.3172 31.8574 21.6431 31.5654C21.9731 31.2692 22.1382 30.863 22.1382 30.3467C22.1382 29.2337 21.533 28.6772 20.3228 28.6772H18.2915ZM18.2915 27.6997H20.1323C20.6655 27.6997 21.0908 27.5664 21.4082 27.2998C21.7298 27.0332 21.8906 26.6714 21.8906 26.2144C21.8906 25.7065 21.7425 25.3384 21.4463 25.1099C21.1501 24.8771 20.6994 24.7607 20.0942 24.7607H18.2915V27.6997ZM27.8384 33.127C26.9074 33.127 26.1499 32.8223 25.5659 32.2129C24.9819 31.5993 24.6899 30.7804 24.6899 29.7563V29.5405C24.6899 28.8592 24.819 28.252 25.0771 27.7188C25.3395 27.1813 25.7035 26.7624 26.1689 26.4619C26.6387 26.1572 27.1465 26.0049 27.6924 26.0049C28.5853 26.0049 29.2793 26.299 29.7744 26.8872C30.2695 27.4754 30.5171 28.3175 30.5171 29.4136V29.9023H25.8643C25.8812 30.5794 26.078 31.1274 26.4546 31.5464C26.8354 31.9611 27.3179 32.1685 27.9019 32.1685C28.3166 32.1685 28.6678 32.0838 28.9556 31.9146C29.2433 31.7453 29.4951 31.521 29.7109 31.2417L30.4282 31.8003C29.8527 32.6847 28.9894 33.127 27.8384 33.127ZM27.6924 26.9697C27.2184 26.9697 26.8206 27.1432 26.499 27.4902C26.1774 27.833 25.9785 28.3154 25.9023 28.9375H29.3428V28.8486C29.3089 28.252 29.1481 27.7907 28.8604 27.4648C28.5726 27.1348 28.1833 26.9697 27.6924 26.9697ZM33.1577 33H31.9834V23.25H33.1577V33ZM39.2832 32.3208C38.8262 32.8582 38.1554 33.127 37.271 33.127C36.5389 33.127 35.9803 32.9154 35.5952 32.4922C35.2144 32.0648 35.0218 31.4342 35.0176 30.6006V26.1318H36.1919V30.5688C36.1919 31.6099 36.6151 32.1304 37.4614 32.1304C38.3586 32.1304 38.9552 31.7961 39.2515 31.1274V26.1318H40.4258V33H39.3086L39.2832 32.3208ZM43.3203 26.1318L43.3521 26.8936C43.8556 26.3011 44.5348 26.0049 45.3896 26.0049C46.3503 26.0049 47.0041 26.373 47.3511 27.1094C47.5796 26.7793 47.8758 26.5127 48.2397 26.3096C48.6079 26.1064 49.0417 26.0049 49.541 26.0049C51.0475 26.0049 51.8135 26.8026 51.8389 28.3979V33H50.6646V28.4678C50.6646 27.9769 50.5524 27.6108 50.3281 27.3696C50.1038 27.1242 49.7272 27.0015 49.1982 27.0015C48.7624 27.0015 48.4006 27.1326 48.1128 27.395C47.825 27.6532 47.6579 28.0023 47.6113 28.4424V33H46.4307V28.4995C46.4307 27.5008 45.9419 27.0015 44.9644 27.0015C44.1942 27.0015 43.6673 27.3294 43.3838 27.9854V33H42.2095V26.1318H43.3203ZM62.6426 29.6421C62.6426 30.6873 62.4035 31.5295 61.9253 32.1685C61.4471 32.8075 60.7996 33.127 59.9829 33.127C59.1493 33.127 58.4933 32.8625 58.0151 32.3335V35.6406H56.8408V26.1318H57.9136L57.9707 26.8936C58.4489 26.3011 59.1133 26.0049 59.9639 26.0049C60.7891 26.0049 61.4408 26.3159 61.9189 26.938C62.4014 27.5601 62.6426 28.4255 62.6426 29.5342V29.6421ZM61.4683 29.5088C61.4683 28.7344 61.3032 28.1229 60.9731 27.6743C60.6431 27.2257 60.1903 27.0015 59.6147 27.0015C58.9038 27.0015 58.3706 27.3167 58.0151 27.9473V31.229C58.3664 31.8553 58.9038 32.1685 59.6274 32.1685C60.1903 32.1685 60.6367 31.9463 60.9668 31.502C61.3011 31.0534 61.4683 30.389 61.4683 29.5088ZM68.3809 32.3208C67.9238 32.8582 67.2531 33.127 66.3687 33.127C65.6366 33.127 65.078 32.9154 64.6929 32.4922C64.312 32.0648 64.1195 31.4342 64.1152 30.6006V26.1318H65.2896V30.5688C65.2896 31.6099 65.7127 32.1304 66.5591 32.1304C67.4562 32.1304 68.0529 31.7961 68.3491 31.1274V26.1318H69.5234V33H68.4062L68.3809 32.3208ZM72.4243 26.1318L72.4624 26.9951C72.9871 26.335 73.6727 26.0049 74.519 26.0049C75.9705 26.0049 76.7026 26.8237 76.7153 28.4614V33H75.541V28.4551C75.5368 27.96 75.4225 27.5939 75.1982 27.3569C74.9782 27.12 74.6333 27.0015 74.1636 27.0015C73.7827 27.0015 73.4484 27.103 73.1606 27.3062C72.8729 27.5093 72.6486 27.7759 72.4878 28.106V33H71.3135V26.1318H72.4243ZM80.7334 31.2798L82.333 26.1318H83.5898L80.8286 34.0601C80.4012 35.2026 79.722 35.7739 78.791 35.7739L78.5688 35.7549L78.1309 35.6724V34.7202L78.4482 34.7456C78.846 34.7456 79.1549 34.6652 79.375 34.5044C79.5993 34.3436 79.7834 34.0495 79.9272 33.6221L80.1875 32.9238L77.7373 26.1318H79.0195L80.7334 31.2798ZM88.7822 33C88.7145 32.8646 88.6595 32.6234 88.6172 32.2764C88.0713 32.8434 87.4196 33.127 86.6621 33.127C85.985 33.127 85.4285 32.9365 84.9927 32.5557C84.561 32.1706 84.3452 31.6839 84.3452 31.0957C84.3452 30.3805 84.616 29.8262 85.1577 29.4326C85.7036 29.0348 86.4696 28.8359 87.4556 28.8359H88.5981V28.2964C88.5981 27.8859 88.4754 27.5601 88.23 27.3188C87.9845 27.0734 87.6227 26.9507 87.1445 26.9507C86.7256 26.9507 86.3743 27.0565 86.0908 27.2681C85.8073 27.4797 85.6655 27.7357 85.6655 28.0361H84.4849C84.4849 27.6934 84.6055 27.3633 84.8467 27.0459C85.0921 26.7243 85.4222 26.4704 85.8369 26.2842C86.2559 26.098 86.715 26.0049 87.2144 26.0049C88.0057 26.0049 88.6257 26.2038 89.0742 26.6016C89.5228 26.9951 89.7555 27.5389 89.7725 28.2329V31.394C89.7725 32.0246 89.8529 32.526 90.0137 32.8984V33H88.7822ZM86.8335 32.105C87.2017 32.105 87.5508 32.0098 87.8809 31.8193C88.2109 31.6289 88.45 31.3813 88.5981 31.0767V29.6675H87.6777C86.2389 29.6675 85.5195 30.0885 85.5195 30.9307C85.5195 31.2988 85.6423 31.5866 85.8877 31.7939C86.1331 32.0013 86.4484 32.105 86.8335 32.105ZM99.0781 33C99.0104 32.8646 98.9554 32.6234 98.9131 32.2764C98.3672 32.8434 97.7155 33.127 96.958 33.127C96.2809 33.127 95.7244 32.9365 95.2886 32.5557C94.8569 32.1706 94.6411 31.6839 94.6411 31.0957C94.6411 30.3805 94.9119 29.8262 95.4536 29.4326C95.9995 29.0348 96.7655 28.8359 97.7515 28.8359H98.894V28.2964C98.894 27.8859 98.7713 27.5601 98.5259 27.3188C98.2804 27.0734 97.9186 26.9507 97.4404 26.9507C97.0215 26.9507 96.6702 27.0565 96.3867 27.2681C96.1032 27.4797 95.9614 27.7357 95.9614 28.0361H94.7808C94.7808 27.6934 94.9014 27.3633 95.1426 27.0459C95.388 26.7243 95.7181 26.4704 96.1328 26.2842C96.5518 26.098 97.0109 26.0049 97.5103 26.0049C98.3016 26.0049 98.9215 26.2038 99.3701 26.6016C99.8187 26.9951 100.051 27.5389 100.068 28.2329V31.394C100.068 32.0246 100.149 32.526 100.31 32.8984V33H99.0781ZM97.1294 32.105C97.4976 32.105 97.8467 32.0098 98.1768 31.8193C98.5068 31.6289 98.7459 31.3813 98.894 31.0767V29.6675H97.9736C96.5348 29.6675 95.8154 30.0885 95.8154 30.9307C95.8154 31.2988 95.9382 31.5866 96.1836 31.7939C96.429 32.0013 96.7443 32.105 97.1294 32.105ZM103.826 29.8198L103.09 30.5879V33H101.916V23.25H103.09V29.147L103.718 28.3916L105.857 26.1318H107.286L104.613 29.001L107.597 33H106.219L103.826 29.8198ZM112.738 32.3208C112.281 32.8582 111.611 33.127 110.726 33.127C109.994 33.127 109.435 32.9154 109.05 32.4922C108.669 32.0648 108.477 31.4342 108.473 30.6006V26.1318H109.647V30.5688C109.647 31.6099 110.07 32.1304 110.917 32.1304C111.814 32.1304 112.41 31.7961 112.707 31.1274V26.1318H113.881V33H112.764L112.738 32.3208ZM116.782 26.1318L116.82 26.9951C117.345 26.335 118.03 26.0049 118.876 26.0049C120.328 26.0049 121.06 26.8237 121.073 28.4614V33H119.898V28.4551C119.894 27.96 119.78 27.5939 119.556 27.3569C119.336 27.12 118.991 27.0015 118.521 27.0015C118.14 27.0015 117.806 27.103 117.518 27.3062C117.23 27.5093 117.006 27.7759 116.845 28.106V33H115.671V26.1318H116.782ZM133.362 28.6772C133.362 29.5828 133.209 30.3742 132.905 31.0513C132.6 31.7241 132.168 32.2383 131.61 32.5938C131.051 32.9492 130.4 33.127 129.655 33.127C128.927 33.127 128.282 32.9492 127.719 32.5938C127.156 32.234 126.718 31.7241 126.405 31.064C126.096 30.3996 125.937 29.6315 125.929 28.7598V28.0933C125.929 27.2046 126.083 26.4196 126.392 25.7383C126.701 25.057 127.137 24.5365 127.7 24.1768C128.267 23.8128 128.914 23.6309 129.642 23.6309C130.383 23.6309 131.034 23.8107 131.597 24.1704C132.164 24.5259 132.6 25.0443 132.905 25.7256C133.209 26.4027 133.362 27.1919 133.362 28.0933V28.6772ZM132.149 28.0806C132.149 26.9845 131.929 26.1445 131.489 25.5605C131.049 24.9723 130.433 24.6782 129.642 24.6782C128.872 24.6782 128.265 24.9723 127.82 25.5605C127.38 26.1445 127.154 26.957 127.141 27.998V28.6772C127.141 29.7394 127.363 30.5752 127.808 31.1846C128.256 31.7897 128.872 32.0923 129.655 32.0923C130.442 32.0923 131.051 31.8066 131.483 31.2354C131.915 30.6598 132.137 29.8368 132.149 28.7661V28.0806ZM136.599 24.4688V26.1318H137.881V27.0396H136.599V31.2988C136.599 31.5739 136.656 31.7812 136.771 31.9209C136.885 32.0563 137.079 32.124 137.354 32.124C137.49 32.124 137.676 32.0986 137.913 32.0479V33C137.604 33.0846 137.304 33.127 137.012 33.127C136.487 33.127 136.091 32.9683 135.825 32.6509C135.558 32.3335 135.425 31.8828 135.425 31.2988V27.0396H134.174V26.1318H135.425V24.4688H136.599ZM138.821 29.5024C138.821 28.8296 138.952 28.2244 139.214 27.687C139.481 27.1496 139.849 26.7349 140.319 26.4429C140.793 26.1509 141.332 26.0049 141.938 26.0049C142.873 26.0049 143.628 26.3286 144.204 26.9761C144.783 27.6235 145.073 28.4847 145.073 29.5596V29.6421C145.073 30.3107 144.944 30.9116 144.686 31.4448C144.432 31.9738 144.066 32.3864 143.588 32.6826C143.114 32.9788 142.568 33.127 141.95 33.127C141.019 33.127 140.264 32.8032 139.684 32.1558C139.109 31.5083 138.821 30.6514 138.821 29.585V29.5024ZM140.001 29.6421C140.001 30.4038 140.177 31.0153 140.528 31.4766C140.884 31.9378 141.358 32.1685 141.95 32.1685C142.547 32.1685 143.021 31.9357 143.372 31.4702C143.723 31.0005 143.899 30.3446 143.899 29.5024C143.899 28.7492 143.719 28.1398 143.359 27.6743C143.004 27.2046 142.53 26.9697 141.938 26.9697C141.358 26.9697 140.89 27.2004 140.535 27.6616C140.179 28.1229 140.001 28.783 140.001 29.6421ZM149.866 27.1855C149.688 27.1559 149.495 27.1411 149.288 27.1411C148.518 27.1411 147.995 27.4691 147.72 28.125V33H146.546V26.1318H147.688L147.708 26.9253C148.093 26.3117 148.639 26.0049 149.345 26.0049C149.574 26.0049 149.747 26.0345 149.866 26.0938V27.1855ZM154.938 33C154.87 32.8646 154.815 32.6234 154.772 32.2764C154.227 32.8434 153.575 33.127 152.817 33.127C152.14 33.127 151.584 32.9365 151.148 32.5557C150.716 32.1706 150.5 31.6839 150.5 31.0957C150.5 30.3805 150.771 29.8262 151.313 29.4326C151.859 29.0348 152.625 28.8359 153.611 28.8359H154.753V28.2964C154.753 27.8859 154.631 27.5601 154.385 27.3188C154.14 27.0734 153.778 26.9507 153.3 26.9507C152.881 26.9507 152.53 27.0565 152.246 27.2681C151.963 27.4797 151.821 27.7357 151.821 28.0361H150.64C150.64 27.6934 150.761 27.3633 151.002 27.0459C151.247 26.7243 151.577 26.4704 151.992 26.2842C152.411 26.098 152.87 26.0049 153.37 26.0049C154.161 26.0049 154.781 26.2038 155.229 26.6016C155.678 26.9951 155.911 27.5389 155.928 28.2329V31.394C155.928 32.0246 156.008 32.526 156.169 32.8984V33H154.938ZM152.989 32.105C153.357 32.105 153.706 32.0098 154.036 31.8193C154.366 31.6289 154.605 31.3813 154.753 31.0767V29.6675H153.833C152.394 29.6675 151.675 30.0885 151.675 30.9307C151.675 31.2988 151.798 31.5866 152.043 31.7939C152.288 32.0013 152.604 32.105 152.989 32.105ZM158.981 26.1318V33.7935C158.981 35.1138 158.382 35.7739 157.185 35.7739C156.926 35.7739 156.687 35.7358 156.467 35.6597V34.7202C156.603 34.7541 156.78 34.771 157 34.771C157.263 34.771 157.462 34.6991 157.597 34.5552C157.737 34.4155 157.807 34.1701 157.807 33.8188V26.1318H158.981ZM157.686 24.3101C157.686 24.1239 157.743 23.9652 157.857 23.834C157.976 23.6986 158.147 23.6309 158.372 23.6309C158.6 23.6309 158.774 23.6965 158.892 23.8276C159.011 23.9588 159.07 24.1196 159.07 24.3101C159.07 24.5005 159.011 24.6592 158.892 24.7861C158.774 24.9131 158.6 24.9766 158.372 24.9766C158.143 24.9766 157.972 24.9131 157.857 24.7861C157.743 24.6592 157.686 24.5005 157.686 24.3101ZM165.119 33C165.051 32.8646 164.996 32.6234 164.954 32.2764C164.408 32.8434 163.757 33.127 162.999 33.127C162.322 33.127 161.765 32.9365 161.33 32.5557C160.898 32.1706 160.682 31.6839 160.682 31.0957C160.682 30.3805 160.953 29.8262 161.495 29.4326C162.041 29.0348 162.806 28.8359 163.792 28.8359H164.935V28.2964C164.935 27.8859 164.812 27.5601 164.567 27.3188C164.321 27.0734 163.96 26.9507 163.481 26.9507C163.062 26.9507 162.711 27.0565 162.428 27.2681C162.144 27.4797 162.002 27.7357 162.002 28.0361H160.822C160.822 27.6934 160.942 27.3633 161.184 27.0459C161.429 26.7243 161.759 26.4704 162.174 26.2842C162.593 26.098 163.052 26.0049 163.551 26.0049C164.343 26.0049 164.963 26.2038 165.411 26.6016C165.86 26.9951 166.092 27.5389 166.109 28.2329V31.394C166.109 32.0246 166.19 32.526 166.351 32.8984V33H165.119ZM163.17 32.105C163.539 32.105 163.888 32.0098 164.218 31.8193C164.548 31.6289 164.787 31.3813 164.935 31.0767V29.6675H164.015C162.576 29.6675 161.856 30.0885 161.856 30.9307C161.856 31.2988 161.979 31.5866 162.225 31.7939C162.47 32.0013 162.785 32.105 163.17 32.105ZM171.359 33V23.7578H174.38C175.383 23.7578 176.137 23.9652 176.64 24.3799C177.148 24.7946 177.402 25.4082 177.402 26.2207C177.402 26.6523 177.279 27.0353 177.034 27.3696C176.788 27.6997 176.454 27.9557 176.031 28.1377C176.53 28.2773 176.924 28.5439 177.211 28.9375C177.503 29.3268 177.649 29.7923 177.649 30.334C177.649 31.1634 177.381 31.8151 176.843 32.2891C176.306 32.763 175.546 33 174.564 33H171.359ZM172.578 28.6772V32.0034H174.59C175.157 32.0034 175.603 31.8574 175.929 31.5654C176.259 31.2692 176.424 30.863 176.424 30.3467C176.424 29.2337 175.819 28.6772 174.609 28.6772H172.578ZM172.578 27.6997H174.418C174.952 27.6997 175.377 27.5664 175.694 27.2998C176.016 27.0332 176.177 26.6714 176.177 26.2144C176.177 25.7065 176.029 25.3384 175.732 25.1099C175.436 24.8771 174.986 24.7607 174.38 24.7607H172.578V27.6997ZM180.55 33H179.376V26.1318H180.55V33ZM179.281 24.3101C179.281 24.1196 179.338 23.9588 179.452 23.8276C179.571 23.6965 179.744 23.6309 179.973 23.6309C180.201 23.6309 180.375 23.6965 180.493 23.8276C180.612 23.9588 180.671 24.1196 180.671 24.3101C180.671 24.5005 180.612 24.6592 180.493 24.7861C180.375 24.9131 180.201 24.9766 179.973 24.9766C179.744 24.9766 179.571 24.9131 179.452 24.7861C179.338 24.6592 179.281 24.5005 179.281 24.3101ZM183.54 32.0415H187.558V33H182.105V32.1367L185.895 27.103H182.163V26.1318H187.368V26.9634L183.54 32.0415ZM190.262 30.3975C190.271 29.8939 190.328 29.4961 190.434 29.2041C190.539 28.9121 190.755 28.5884 191.081 28.2329L191.913 27.376C192.268 26.974 192.446 26.5423 192.446 26.0811C192.446 25.6367 192.329 25.2897 192.097 25.04C191.864 24.7861 191.525 24.6592 191.081 24.6592C190.649 24.6592 190.302 24.7734 190.04 25.002C189.778 25.2305 189.646 25.5373 189.646 25.9224H188.472C188.481 25.2368 188.724 24.6846 189.202 24.2656C189.685 23.8424 190.311 23.6309 191.081 23.6309C191.881 23.6309 192.503 23.8467 192.947 24.2783C193.396 24.7057 193.62 25.2939 193.62 26.043C193.62 26.7835 193.277 27.5135 192.592 28.2329L191.9 28.9185C191.591 29.2612 191.437 29.7542 191.437 30.3975H190.262ZM190.211 32.4097C190.211 32.2192 190.269 32.0605 190.383 31.9336C190.501 31.8024 190.675 31.7368 190.903 31.7368C191.132 31.7368 191.305 31.8024 191.424 31.9336C191.542 32.0605 191.602 32.2192 191.602 32.4097C191.602 32.6001 191.542 32.7588 191.424 32.8857C191.305 33.0085 191.132 33.0698 190.903 33.0698C190.675 33.0698 190.501 33.0085 190.383 32.8857C190.269 32.7588 190.211 32.6001 190.211 32.4097ZM17.1426 54V41.2031H21.0801C22.2051 41.2031 23.21 41.458 24.0947 41.9678C24.9854 42.4717 25.6797 43.1924 26.1777 44.1299C26.6758 45.0615 26.9248 46.1221 26.9248 47.3115V47.9004C26.9248 49.0898 26.6787 50.1475 26.1865 51.0732C25.7002 51.999 25.0117 52.7168 24.1211 53.2266C23.2305 53.7363 22.2256 53.9941 21.1064 54H17.1426ZM19.7793 43.3389V51.8818H21.0537C22.085 51.8818 22.873 51.5449 23.418 50.8711C23.9629 50.1973 24.2412 49.2334 24.2529 47.9795V47.3027C24.2529 46.002 23.9834 45.0176 23.4443 44.3496C22.9053 43.6758 22.1172 43.3389 21.0801 43.3389H19.7793ZM34.1934 54C34.0762 53.7715 33.9912 53.4873 33.9385 53.1475C33.3232 53.833 32.5234 54.1758 31.5391 54.1758C30.6074 54.1758 29.834 53.9062 29.2188 53.3672C28.6094 52.8281 28.3047 52.1484 28.3047 51.3281C28.3047 50.3203 28.6768 49.5469 29.4209 49.0078C30.1709 48.4688 31.252 48.1963 32.6641 48.1904H33.833V47.6455C33.833 47.2061 33.7188 46.8545 33.4902 46.5908C33.2676 46.3271 32.9131 46.1953 32.4268 46.1953C31.999 46.1953 31.6621 46.2979 31.416 46.5029C31.1758 46.708 31.0557 46.9893 31.0557 47.3467H28.5156C28.5156 46.7959 28.6855 46.2861 29.0254 45.8174C29.3652 45.3486 29.8457 44.9824 30.4668 44.7188C31.0879 44.4492 31.7852 44.3145 32.5586 44.3145C33.7305 44.3145 34.6592 44.6104 35.3447 45.2021C36.0361 45.7881 36.3818 46.6143 36.3818 47.6807V51.8027C36.3877 52.7051 36.5137 53.3877 36.7598 53.8506V54H34.1934ZM32.0928 52.2334C32.4678 52.2334 32.8135 52.1514 33.1299 51.9873C33.4463 51.8174 33.6807 51.5918 33.833 51.3105V49.6758H32.8838C31.6123 49.6758 30.9355 50.1152 30.8535 50.9941L30.8447 51.1436C30.8447 51.46 30.9561 51.7207 31.1787 51.9258C31.4014 52.1309 31.7061 52.2334 32.0928 52.2334ZM39.0273 54V46.3535H37.6123V44.4902H39.0273V43.6816C39.0273 42.6152 39.332 41.7891 39.9414 41.2031C40.5566 40.6113 41.415 40.3154 42.5166 40.3154C42.8682 40.3154 43.2988 40.374 43.8086 40.4912L43.7822 42.46C43.5713 42.4072 43.3135 42.3809 43.0088 42.3809C42.0537 42.3809 41.5762 42.8291 41.5762 43.7256V44.4902H43.4658V46.3535H41.5762V54H39.0273ZM47.8252 42.1523V44.4902H49.4512V46.3535H47.8252V51.0996C47.8252 51.4512 47.8926 51.7031 48.0273 51.8555C48.1621 52.0078 48.4199 52.084 48.8008 52.084C49.082 52.084 49.3311 52.0635 49.5479 52.0225V53.9473C49.0498 54.0996 48.5371 54.1758 48.0098 54.1758C46.2285 54.1758 45.3203 53.2764 45.2852 51.4775V46.3535H43.8965V44.4902H45.2852V42.1523H47.8252ZM56.377 54C56.2598 53.7715 56.1748 53.4873 56.1221 53.1475C55.5068 53.833 54.707 54.1758 53.7227 54.1758C52.791 54.1758 52.0176 53.9062 51.4023 53.3672C50.793 52.8281 50.4883 52.1484 50.4883 51.3281C50.4883 50.3203 50.8604 49.5469 51.6045 49.0078C52.3545 48.4688 53.4355 48.1963 54.8477 48.1904H56.0166V47.6455C56.0166 47.2061 55.9023 46.8545 55.6738 46.5908C55.4512 46.3271 55.0967 46.1953 54.6104 46.1953C54.1826 46.1953 53.8457 46.2979 53.5996 46.5029C53.3594 46.708 53.2393 46.9893 53.2393 47.3467H50.6992C50.6992 46.7959 50.8691 46.2861 51.209 45.8174C51.5488 45.3486 52.0293 44.9824 52.6504 44.7188C53.2715 44.4492 53.9688 44.3145 54.7422 44.3145C55.9141 44.3145 56.8428 44.6104 57.5283 45.2021C58.2197 45.7881 58.5654 46.6143 58.5654 47.6807V51.8027C58.5713 52.7051 58.6973 53.3877 58.9434 53.8506V54H56.377ZM54.2764 52.2334C54.6514 52.2334 54.9971 52.1514 55.3135 51.9873C55.6299 51.8174 55.8643 51.5918 56.0166 51.3105V49.6758H55.0674C53.7959 49.6758 53.1191 50.1152 53.0371 50.9941L53.0283 51.1436C53.0283 51.46 53.1396 51.7207 53.3623 51.9258C53.585 52.1309 53.8896 52.2334 54.2764 52.2334ZM65.8604 46.8721C65.5146 46.8252 65.21 46.8018 64.9463 46.8018C63.9854 46.8018 63.3555 47.127 63.0566 47.7773V54H60.5166V44.4902H62.916L62.9863 45.624C63.4961 44.751 64.2021 44.3145 65.1045 44.3145C65.3857 44.3145 65.6494 44.3525 65.8955 44.4287L65.8604 46.8721ZM71.2041 49.1748C71.2041 47.7158 71.5498 46.541 72.2412 45.6504C72.9385 44.7598 73.876 44.3145 75.0537 44.3145C76.0967 44.3145 76.9082 44.6719 77.4883 45.3867L77.5938 44.4902H79.8965V53.6836C79.8965 54.5156 79.7061 55.2393 79.3252 55.8545C78.9502 56.4697 78.4199 56.9385 77.7344 57.2607C77.0488 57.583 76.2461 57.7441 75.3262 57.7441C74.6289 57.7441 73.9492 57.6035 73.2871 57.3223C72.625 57.0469 72.124 56.6895 71.7842 56.25L72.9092 54.7031C73.542 55.4121 74.3096 55.7666 75.2119 55.7666C75.8857 55.7666 76.4102 55.585 76.7852 55.2217C77.1602 54.8643 77.3477 54.3545 77.3477 53.6924V53.1826C76.7617 53.8447 75.9912 54.1758 75.0361 54.1758C73.8936 54.1758 72.9678 53.7305 72.2588 52.8398C71.5557 51.9434 71.2041 50.7568 71.2041 49.2803V49.1748ZM73.7441 49.3594C73.7441 50.2207 73.917 50.8975 74.2627 51.3896C74.6084 51.876 75.083 52.1191 75.6865 52.1191C76.46 52.1191 77.0137 51.8291 77.3477 51.249V47.25C77.0078 46.6699 76.46 46.3799 75.7041 46.3799C75.0947 46.3799 74.6143 46.6289 74.2627 47.127C73.917 47.625 73.7441 48.3691 73.7441 49.3594ZM87.2002 46.8721C86.8545 46.8252 86.5498 46.8018 86.2861 46.8018C85.3252 46.8018 84.6953 47.127 84.3965 47.7773V54H81.8564V44.4902H84.2559L84.3262 45.624C84.8359 44.751 85.542 44.3145 86.4443 44.3145C86.7256 44.3145 86.9893 44.3525 87.2354 44.4287L87.2002 46.8721ZM93.6777 54C93.5605 53.7715 93.4756 53.4873 93.4229 53.1475C92.8076 53.833 92.0078 54.1758 91.0234 54.1758C90.0918 54.1758 89.3184 53.9062 88.7031 53.3672C88.0938 52.8281 87.7891 52.1484 87.7891 51.3281C87.7891 50.3203 88.1611 49.5469 88.9053 49.0078C89.6553 48.4688 90.7363 48.1963 92.1484 48.1904H93.3174V47.6455C93.3174 47.2061 93.2031 46.8545 92.9746 46.5908C92.752 46.3271 92.3975 46.1953 91.9111 46.1953C91.4834 46.1953 91.1465 46.2979 90.9004 46.5029C90.6602 46.708 90.54 46.9893 90.54 47.3467H88C88 46.7959 88.1699 46.2861 88.5098 45.8174C88.8496 45.3486 89.3301 44.9824 89.9512 44.7188C90.5723 44.4492 91.2695 44.3145 92.043 44.3145C93.2148 44.3145 94.1436 44.6104 94.8291 45.2021C95.5205 45.7881 95.8662 46.6143 95.8662 47.6807V51.8027C95.8721 52.7051 95.998 53.3877 96.2441 53.8506V54H93.6777ZM91.5771 52.2334C91.9521 52.2334 92.2979 52.1514 92.6143 51.9873C92.9307 51.8174 93.165 51.5918 93.3174 51.3105V49.6758H92.3682C91.0967 49.6758 90.4199 50.1152 90.3379 50.9941L90.3291 51.1436C90.3291 51.46 90.4404 51.7207 90.6631 51.9258C90.8857 52.1309 91.1904 52.2334 91.5771 52.2334ZM100.858 42.1523V44.4902H102.484V46.3535H100.858V51.0996C100.858 51.4512 100.926 51.7031 101.061 51.8555C101.195 52.0078 101.453 52.084 101.834 52.084C102.115 52.084 102.364 52.0635 102.581 52.0225V53.9473C102.083 54.0996 101.57 54.1758 101.043 54.1758C99.2617 54.1758 98.3535 53.2764 98.3184 51.4775V46.3535H96.9297V44.4902H98.3184V42.1523H100.858ZM106.58 54H104.031V44.4902H106.58V54ZM103.882 42.0293C103.882 41.6484 104.008 41.335 104.26 41.0889C104.518 40.8428 104.866 40.7197 105.306 40.7197C105.739 40.7197 106.085 40.8428 106.343 41.0889C106.601 41.335 106.729 41.6484 106.729 42.0293C106.729 42.416 106.598 42.7324 106.334 42.9785C106.076 43.2246 105.733 43.3477 105.306 43.3477C104.878 43.3477 104.532 43.2246 104.269 42.9785C104.011 42.7324 103.882 42.416 103.882 42.0293ZM113.831 51.3721C113.831 51.0615 113.676 50.8184 113.365 50.6426C113.061 50.4609 112.568 50.2998 111.889 50.1592C109.627 49.6846 108.496 48.7236 108.496 47.2764C108.496 46.4326 108.845 45.7295 109.542 45.167C110.245 44.5986 111.162 44.3145 112.293 44.3145C113.5 44.3145 114.464 44.5986 115.185 45.167C115.911 45.7354 116.274 46.4736 116.274 47.3818H113.734C113.734 47.0186 113.617 46.7197 113.383 46.4854C113.148 46.2451 112.782 46.125 112.284 46.125C111.856 46.125 111.525 46.2217 111.291 46.415C111.057 46.6084 110.939 46.8545 110.939 47.1533C110.939 47.4346 111.071 47.6631 111.335 47.8389C111.604 48.0088 112.056 48.1582 112.688 48.2871C113.321 48.4102 113.854 48.5508 114.288 48.709C115.63 49.2012 116.301 50.0537 116.301 51.2666C116.301 52.1338 115.929 52.8369 115.185 53.376C114.44 53.9092 113.479 54.1758 112.302 54.1758C111.505 54.1758 110.796 54.0352 110.175 53.7539C109.56 53.4668 109.076 53.0771 108.725 52.585C108.373 52.0869 108.197 51.5508 108.197 50.9766H110.605C110.629 51.4277 110.796 51.7734 111.106 52.0137C111.417 52.2539 111.833 52.374 112.354 52.374C112.841 52.374 113.207 52.2832 113.453 52.1016C113.705 51.9141 113.831 51.6709 113.831 51.3721ZM122.031 49.1748C122.031 47.6924 122.362 46.5117 123.024 45.6328C123.692 44.7539 124.604 44.3145 125.758 44.3145C126.684 44.3145 127.448 44.6602 128.052 45.3516V40.5H130.601V54H128.307L128.184 52.9893C127.551 53.7803 126.736 54.1758 125.74 54.1758C124.621 54.1758 123.722 53.7363 123.042 52.8574C122.368 51.9727 122.031 50.7451 122.031 49.1748ZM124.571 49.3594C124.571 50.25 124.727 50.9326 125.037 51.4072C125.348 51.8818 125.799 52.1191 126.391 52.1191C127.176 52.1191 127.729 51.7881 128.052 51.126V47.373C127.735 46.7109 127.188 46.3799 126.408 46.3799C125.184 46.3799 124.571 47.373 124.571 49.3594ZM135.25 54H132.701V44.4902H135.25V54ZM132.552 42.0293C132.552 41.6484 132.678 41.335 132.93 41.0889C133.188 40.8428 133.536 40.7197 133.976 40.7197C134.409 40.7197 134.755 40.8428 135.013 41.0889C135.271 41.335 135.399 41.6484 135.399 42.0293C135.399 42.416 135.268 42.7324 135.004 42.9785C134.746 43.2246 134.403 43.3477 133.976 43.3477C133.548 43.3477 133.202 43.2246 132.938 42.9785C132.681 42.7324 132.552 42.416 132.552 42.0293ZM146.983 51.3721C146.983 51.0615 146.828 50.8184 146.518 50.6426C146.213 50.4609 145.721 50.2998 145.041 50.1592C142.779 49.6846 141.648 48.7236 141.648 47.2764C141.648 46.4326 141.997 45.7295 142.694 45.167C143.397 44.5986 144.314 44.3145 145.445 44.3145C146.652 44.3145 147.616 44.5986 148.337 45.167C149.063 45.7354 149.427 46.4736 149.427 47.3818H146.887C146.887 47.0186 146.77 46.7197 146.535 46.4854C146.301 46.2451 145.935 46.125 145.437 46.125C145.009 46.125 144.678 46.2217 144.443 46.415C144.209 46.6084 144.092 46.8545 144.092 47.1533C144.092 47.4346 144.224 47.6631 144.487 47.8389C144.757 48.0088 145.208 48.1582 145.841 48.2871C146.474 48.4102 147.007 48.5508 147.44 48.709C148.782 49.2012 149.453 50.0537 149.453 51.2666C149.453 52.1338 149.081 52.8369 148.337 53.376C147.593 53.9092 146.632 54.1758 145.454 54.1758C144.657 54.1758 143.948 54.0352 143.327 53.7539C142.712 53.4668 142.229 53.0771 141.877 52.585C141.525 52.0869 141.35 51.5508 141.35 50.9766H143.758C143.781 51.4277 143.948 51.7734 144.259 52.0137C144.569 52.2539 144.985 52.374 145.507 52.374C145.993 52.374 146.359 52.2832 146.605 52.1016C146.857 51.9141 146.983 51.6709 146.983 51.3721ZM153.777 54H151.229V44.4902H153.777V54ZM151.079 42.0293C151.079 41.6484 151.205 41.335 151.457 41.0889C151.715 40.8428 152.063 40.7197 152.503 40.7197C152.937 40.7197 153.282 40.8428 153.54 41.0889C153.798 41.335 153.927 41.6484 153.927 42.0293C153.927 42.416 153.795 42.7324 153.531 42.9785C153.273 43.2246 152.931 43.3477 152.503 43.3477C152.075 43.3477 151.729 43.2246 151.466 42.9785C151.208 42.7324 151.079 42.416 151.079 42.0293ZM158.216 44.4902L158.295 45.5889C158.975 44.7393 159.886 44.3145 161.028 44.3145C162.036 44.3145 162.786 44.6104 163.278 45.2021C163.771 45.7939 164.022 46.6787 164.034 47.8564V54H161.494V47.918C161.494 47.3789 161.377 46.9893 161.143 46.749C160.908 46.5029 160.519 46.3799 159.974 46.3799C159.259 46.3799 158.723 46.6846 158.365 47.2939V54H155.825V44.4902H158.216ZM168.648 54H166.1V44.4902H168.648V54ZM165.95 42.0293C165.95 41.6484 166.076 41.335 166.328 41.0889C166.586 40.8428 166.935 40.7197 167.374 40.7197C167.808 40.7197 168.153 40.8428 168.411 41.0889C168.669 41.335 168.798 41.6484 168.798 42.0293C168.798 42.416 168.666 42.7324 168.402 42.9785C168.145 43.2246 167.802 43.3477 167.374 43.3477C166.946 43.3477 166.601 43.2246 166.337 42.9785C166.079 42.7324 165.95 42.416 165.95 42.0293ZM173.333 50.0713H171.224L170.925 41.2031H173.632L173.333 50.0713ZM172.278 51.46C172.706 51.46 173.049 51.5859 173.307 51.8379C173.57 52.0898 173.702 52.4121 173.702 52.8047C173.702 53.1914 173.57 53.5107 173.307 53.7627C173.049 54.0146 172.706 54.1406 172.278 54.1406C171.856 54.1406 171.514 54.0146 171.25 53.7627C170.992 53.5107 170.863 53.1914 170.863 52.8047C170.863 52.418 170.992 52.0986 171.25 51.8467C171.514 51.5889 171.856 51.46 172.278 51.46Z" fill="white"/>
</svg>
