<svg width="128" height="110" viewBox="0 0 128 110" fill="none" xmlns="http://www.w3.org/2000/svg">
<path d="M43 86L34.0227 11.5L113.023 0L122.023 73L43 86Z" fill="#D60C0C"/>
<path d="M42.0227 41.5C41.2227 35.9 37.6894 34.5 36.0227 34.5C37.0227 42 34.5227 47.5 30.5227 53C27.3227 57.4 27.1894 66.1667 27.5227 70C25.5227 71.8333 21.3227 75.8 20.5227 77C19.7227 78.2 16.5227 83.1667 15.0227 85.5C22.0227 86.5 36.2227 88.5 37.0227 88.5C37.8227 88.5 41.1022 84.8333 42.6419 83L40.5201 63.5C39.5952 55 43.0227 48.5 42.0227 41.5Z" fill="#E2B490"/>
<path d="M23.5228 77.5C20.3228 73.5 17.5228 74.1667 16.5228 75C12.5228 78 3.02275 83 1.52275 83.5C0.0227522 84 -0.977248 84.5 1.52275 90.5C4.32275 98.5 12.6894 103.833 16.5228 105.5C23.0228 105.5 36.5228 92.5 39.5228 88.5C31.0228 88 27.5228 82.5 23.5228 77.5Z" fill="#9A9A9A"/>
<path d="M77 14C61.544 14 49 26.32 49 41.5C49 56.68 61.544 69 77 69C92.456 69 105 56.68 105 41.5C105 26.32 92.456 14 77 14ZM77 63.5C64.624 63.5 54.6 53.655 54.6 41.5C54.6 36.4125 56.364 31.7375 59.332 28.025L90.72 58.8525C86.94 61.7675 82.18 63.5 77 63.5ZM94.668 54.975L63.28 24.1475C67.06 21.2325 71.82 19.5 77 19.5C89.376 19.5 99.4 29.345 99.4 41.5C99.4 46.5875 97.636 51.2625 94.668 54.975Z" fill="white"/>
</svg>
