<?xml version="1.0" encoding="utf-8"?>
<!-- Generator: Adobe Illustrator 25.2.3, SVG Export Plug-In . SVG Version: 6.00 Build 0)  -->
<svg version="1.1" id="Layer_1" xmlns="http://www.w3.org/2000/svg" xmlns:xlink="http://www.w3.org/1999/xlink" x="0px" y="0px"
	 viewBox="0 0 24 24" style="enable-background:new 0 0 24 24;" xml:space="preserve">
<style type="text/css">
	.st0{fill:#222222;}
</style>
<path class="st0" d="M12,0C5.4,0,0,5.4,0,12s5.4,12,12,12s12-5.4,12-12S18.6,0,12,0z M22,12c0,2.3-0.8,4.5-2.2,6.2l-14-14
	C7.5,2.8,9.7,2,12,2C17.5,2,22,6.5,22,12z M2,12c0-2.3,0.8-4.5,2.2-6.2l14,14C16.5,21.2,14.3,22,12,22C6.5,22,2,17.5,2,12z"/>
</svg>
