<svg id="group_541" data-name="group 541" xmlns="http://www.w3.org/2000/svg" width="109.232" height="19.994" viewBox="0 0 109.232 19.994">
  <g id="group_539" data-name="group 539">
    <path id="path_55" data-name="path 55" d="M17.527,58.321V57.137a.554.554,0,0,1,.559-.559H20.01a.134.134,0,0,0,.115-.214,2.686,2.686,0,0,0-4.686.016H4.8A2.7,2.7,0,0,0,2.45,55,2.663,2.663,0,0,0,.115,56.365a.144.144,0,0,0,.115.214H2.088a.554.554,0,0,1,.559.559v1.184a.554.554,0,0,1-.559.559H.246a.134.134,0,0,0-.115.214,2.686,2.686,0,0,0,4.686-.016H15.439a2.7,2.7,0,0,0,2.351,1.381,2.663,2.663,0,0,0,2.335-1.365.144.144,0,0,0-.115-.214H18.086A.554.554,0,0,1,17.527,58.321Z" transform="translate(-0.082 -45.957)" fill="#e26529"/>
    <path id="path_56" data-name="path 56" d="M20.043,6.889V.312A.312.312,0,0,0,19.731,0H17.445a3.137,3.137,0,0,1-3.157,2.992A3.16,3.16,0,0,1,11.131,0H8.879A3.137,3.137,0,0,1,5.722,2.992,3.123,3.123,0,0,1,2.581,0H.312A.3.3,0,0,0,0,.312V6.906H20.043Z" fill="#e26529"/>
    <path id="path_57" data-name="path 57" d="M19.568,104.721H.659a.554.554,0,0,1-.559-.559V101.4H20.127v2.762A.565.565,0,0,1,19.568,104.721Z" transform="translate(-0.084 -84.728)" fill="#e26529"/>
  </g>
  <g id="group_540" data-name="group 540" transform="translate(26.768 5.722)">
    <path id="path_58" data-name="path 58" d="M162.8,39.881a5.135,5.135,0,0,1,.181-1.348,5.292,5.292,0,0,1,.51-1.217,5.39,5.39,0,0,1,.789-1.036,5.14,5.14,0,0,1,1.019-.789,5,5,0,0,1,1.217-.51,5.116,5.116,0,0,1,2.7,0,5.291,5.291,0,0,1,1.217.51,4.862,4.862,0,0,1,1.825,1.825,5.292,5.292,0,0,1,.51,1.217,5.229,5.229,0,0,1,.181,1.348,5.134,5.134,0,0,1-.181,1.348,4.886,4.886,0,0,1-.51,1.2,4.706,4.706,0,0,1-.789,1.019,4.8,4.8,0,0,1-1.036.789,5.292,5.292,0,0,1-1.217.51,5.23,5.23,0,0,1-1.348.181,5.134,5.134,0,0,1-1.348-.181,5.292,5.292,0,0,1-1.217-.51,4.825,4.825,0,0,1-1.019-.789,4.706,4.706,0,0,1-.789-1.019,4.981,4.981,0,0,1-.691-2.549Zm2.565,0a3.118,3.118,0,0,0,.181,1.036,2.778,2.778,0,0,0,.526.839,2.653,2.653,0,0,0,.789.559,2.538,2.538,0,0,0,1,.2,2.482,2.482,0,0,0,1-.2,2.292,2.292,0,0,0,.789-.559,2.426,2.426,0,0,0,.526-.839,2.64,2.64,0,0,0,.181-1.036,2.952,2.952,0,0,0-.181-1.019,2.426,2.426,0,0,0-.526-.839,2.388,2.388,0,0,0-.789-.559,2.549,2.549,0,0,0-1-.214,2.241,2.241,0,0,0-1,.214,2.292,2.292,0,0,0-.789.559,2.778,2.778,0,0,0-.526.839A2.952,2.952,0,0,0,165.365,39.881Z" transform="translate(-162.8 -34.8)" fill="#e26529"/>
    <path id="path_59" data-name="path 59" d="M243.7,36a.313.313,0,0,1,.082-.214.356.356,0,0,1,.23-.082h7.136a.33.33,0,0,1,.214.066.244.244,0,0,1,.1.214v1.644a.436.436,0,0,1-.082.23.288.288,0,0,1-.23.115h-2.285v7.267a.346.346,0,0,1-.082.214.3.3,0,0,1-.23.1h-1.94a.346.346,0,0,1-.214-.082.3.3,0,0,1-.1-.23V37.969h-2.285a.393.393,0,0,1-.23-.082.323.323,0,0,1-.082-.247Z" transform="translate(-230.398 -35.552)" fill="#e26529"/>
    <path id="path_60" data-name="path 60" d="M310.4,39.881a5.135,5.135,0,0,1,.181-1.348,5.292,5.292,0,0,1,.51-1.217,5.39,5.39,0,0,1,.789-1.036,5.14,5.14,0,0,1,1.019-.789,5,5,0,0,1,1.217-.51,5.116,5.116,0,0,1,2.7,0,5.291,5.291,0,0,1,1.217.51,4.862,4.862,0,0,1,1.825,1.825,5.294,5.294,0,0,1,.51,1.217,5.23,5.23,0,0,1,.181,1.348,5.135,5.135,0,0,1-.181,1.348,4.888,4.888,0,0,1-.51,1.2,4.707,4.707,0,0,1-.789,1.019,4.8,4.8,0,0,1-1.036.789,5.291,5.291,0,0,1-1.217.51,5.23,5.23,0,0,1-1.348.181,5.134,5.134,0,0,1-1.348-.181,5.292,5.292,0,0,1-1.217-.51,4.826,4.826,0,0,1-1.019-.789,4.707,4.707,0,0,1-.789-1.019,4.981,4.981,0,0,1-.691-2.549Zm2.581,0a3.118,3.118,0,0,0,.181,1.036,2.778,2.778,0,0,0,.526.839,2.653,2.653,0,0,0,.789.559,2.538,2.538,0,0,0,1,.2,2.481,2.481,0,0,0,1-.2,2.292,2.292,0,0,0,.789-.559,2.427,2.427,0,0,0,.526-.839,2.641,2.641,0,0,0,.181-1.036,2.953,2.953,0,0,0-.181-1.019,2.427,2.427,0,0,0-.526-.839,2.388,2.388,0,0,0-.789-.559,2.549,2.549,0,0,0-1-.214,2.241,2.241,0,0,0-1,.214,2.292,2.292,0,0,0-.789.559,2.778,2.778,0,0,0-.526.839A2.612,2.612,0,0,0,312.981,39.881Z" transform="translate(-286.131 -34.8)" fill="#e26529"/>
    <path id="path_61" data-name="path 61" d="M398.3,35.912a.348.348,0,0,1,.066-.23.284.284,0,0,1,.214-.082h4.291a3.036,3.036,0,0,1,1.283.263,3.461,3.461,0,0,1,1.036.691,3.652,3.652,0,0,1,.707,1.019,3.209,3.209,0,0,1,.263,1.25,2.886,2.886,0,0,1-.46,1.611,3.21,3.21,0,0,1-.526.641,3.127,3.127,0,0,1-.658.493l1.71,3.206c.033.066.066.132.115.214a.442.442,0,0,1,.066.214.191.191,0,0,1-.066.164.351.351,0,0,1-.2.049h-2.269a.262.262,0,0,1-.2-.066.27.27,0,0,1-.115-.181l-1.611-3.025h-1.069v2.992c0,.2-.1.28-.312.28H398.6a.3.3,0,0,1-.214-.066.284.284,0,0,1-.082-.214Zm5.2,2.96a1.106,1.106,0,0,0-.066-.395,1.167,1.167,0,0,0-.214-.362,1.27,1.27,0,0,0-.312-.28.885.885,0,0,0-.411-.148,2.671,2.671,0,0,0-.345-.016c-.115,0-.23-.016-.362-.016h-.921v2.433h1.43c.066,0,.132-.016.214-.016a1.1,1.1,0,0,0,.411-.132.854.854,0,0,0,.312-.28,1.549,1.549,0,0,0,.2-.362A1.355,1.355,0,0,0,403.5,38.872Z" transform="translate(-359.578 -35.468)" fill="#e26529"/>
    <path id="path_62" data-name="path 62" d="M473.33,36.047c0-.033.016-.049.049-.082a.2.2,0,0,1,.082-.082.265.265,0,0,1,.115-.066.28.28,0,0,1,.115-.016h1.694a.287.287,0,0,1,.2.066.743.743,0,0,1,.115.115l.164.378,3.486,8.994a.2.2,0,0,1-.016.214.34.34,0,0,1-.247.082h-1.907a.436.436,0,0,1-.23-.049.376.376,0,0,1-.132-.2c-.082-.23-.181-.444-.263-.674s-.164-.444-.247-.674h-3.519c-.082.23-.164.444-.263.674-.082.23-.164.444-.263.674a.337.337,0,0,1-.345.247H469.96a.33.33,0,0,1-.214-.066.17.17,0,0,1-.033-.2Zm1.2,2.828c-.082.23-.164.477-.263.723-.082.263-.164.526-.263.789s-.164.526-.263.789a7.4,7.4,0,0,1-.263.723h2.039Z" transform="translate(-419.235 -35.636)" fill="#e26529"/>
    <path id="path_63" data-name="path 63" d="M549.872,35.963c0-.164.082-.247.263-.263h1.957c.247,0,.362.115.362.345v6.4a2.816,2.816,0,0,1-.263,1.233,3.353,3.353,0,0,1-.707,1,3.415,3.415,0,0,1-1.036.674,3.175,3.175,0,0,1-1.233.247,3.806,3.806,0,0,1-.756-.082,3.662,3.662,0,0,1-.707-.263,3.156,3.156,0,0,1-.625-.411,2.844,2.844,0,0,1-.51-.575c-.016,0-.016-.033-.016-.1a.289.289,0,0,1,.1-.247l1.151-1.085a.7.7,0,0,1,.115-.082.3.3,0,0,1,.115-.033.316.316,0,0,1,.2.066,1.753,1.753,0,0,1,.2.164,1.027,1.027,0,0,0,.263.164.763.763,0,0,0,.345.066.645.645,0,0,0,.3-.066.884.884,0,0,0,.263-.164,1.24,1.24,0,0,0,.181-.23.6.6,0,0,0,.066-.3V35.963Z" transform="translate(-483.495 -35.552)" fill="#e26529"/>
    <path id="path_64" data-name="path 64" d="M609.13,36.047c0-.033.016-.049.049-.082a.2.2,0,0,1,.082-.082.265.265,0,0,1,.115-.066.28.28,0,0,1,.115-.016h1.694a.287.287,0,0,1,.2.066.741.741,0,0,1,.115.115l.164.378,3.486,8.994a.2.2,0,0,1-.016.214.341.341,0,0,1-.247.082h-1.907a.435.435,0,0,1-.23-.049.376.376,0,0,1-.132-.2c-.082-.23-.181-.444-.263-.674s-.164-.444-.247-.674h-3.519c-.082.23-.164.444-.263.674-.082.23-.164.444-.263.674a.337.337,0,0,1-.345.247H605.76a.331.331,0,0,1-.214-.066.17.17,0,0,1-.033-.2Zm1.2,2.828c-.082.23-.164.477-.263.723-.082.263-.164.526-.263.789s-.164.526-.263.789a7.408,7.408,0,0,1-.263.723h2.039Z" transform="translate(-532.707 -35.636)" fill="#e26529"/>
  </g>
</svg>
