<svg width="24" height="16" viewBox="0 0 24 16" fill="none" xmlns="http://www.w3.org/2000/svg">
<path d="M3.6 1.33333C3.6 0.596953 4.13726 0 4.8 0C5.46274 0 6 0.596954 6 1.33333V14.6667C6 15.403 5.46274 16 4.8 16C4.13726 16 3.6 15.403 3.6 14.6667V1.33333Z" fill="#DC3547"/>
<path d="M8.4 1.33333C8.4 0.596953 8.93726 0 9.6 0C10.2627 0 10.8 0.596954 10.8 1.33333V14.6667C10.8 15.403 10.2627 16 9.6 16C8.93726 16 8.4 15.403 8.4 14.6667V1.33333Z" fill="#DC3547"/>
<path d="M13.2 1.33333C13.2 0.596953 13.7373 0 14.4 0C15.0627 0 15.6 0.596954 15.6 1.33333V14.6667C15.6 15.403 15.0627 16 14.4 16C13.7373 16 13.2 15.403 13.2 14.6667V1.33333Z" fill="#DC3547"/>
<path d="M18 1.33333C18 0.596953 18.5373 0 19.2 0C19.8627 0 20.4 0.596954 20.4 1.33333V14.6667C20.4 15.403 19.8627 16 19.2 16C18.5373 16 18 15.403 18 14.6667V1.33333Z" fill="#DC3547"/>
<path d="M22.4414 4.04123C23.1018 3.86951 23.7806 4.24983 23.9575 4.89071C24.1345 5.53158 23.7426 6.19032 23.0822 6.36204L1.55864 11.9588C0.898246 12.1305 0.219441 11.7502 0.0424888 11.1093C-0.134464 10.4684 0.257444 9.80968 0.917839 9.63796L22.4414 4.04123Z" fill="#DC3547"/>
</svg>
